<?xml version="1.0" standalone="no"?>
<!DOCTYPE svg PUBLIC "-//W3C//DTD SVG 20010904//EN"
 "http://www.w3.org/TR/2001/REC-SVG-20010904/DTD/svg10.dtd">
<svg version="1.0" xmlns="http://www.w3.org/2000/svg"
 width="768.000000pt" height="768.000000pt" viewBox="0 0 768.000000 768.000000"
 preserveAspectRatio="xMidYMid meet">
<metadata>
Created by potrace 1.14, written by Peter Selinger 2001-2017
</metadata>
<g transform="translate(0.000000,768.000000) scale(0.100000,-0.100000)"
fill="#000000" stroke="none">
<path d="M990 7660 c-241 -45 -455 -156 -625 -324 -184 -181 -287 -372 -340
-627 l-24 -114 0 -2755 0 -2755 24 -114 c37 -181 96 -320 195 -459 188 -267
462 -437 800 -499 61 -11 5580 -10 5649 1 127 20 279 74 396 141 43 25 82 45
86 45 4 0 9 3 11 8 2 4 32 30 68 59 128 101 234 229 307 369 44 84 88 193 104
259 38 156 38 107 38 2950 0 2616 -1 2745 -18 2840 -56 305 -219 572 -456 746
-44 33 -84 63 -90 67 -61 47 -309 145 -397 157 -18 3 -44 8 -58 12 -14 4
-1274 8 -2800 9 -2631 2 -2780 1 -2870 -16z"/>
</g>
</svg>
