<?xml version="1.0" standalone="no"?>
<!DOCTYPE svg PUBLIC "-//W3C//DTD SVG 20010904//EN"
 "http://www.w3.org/TR/2001/REC-SVG-20010904/DTD/svg10.dtd">
<svg version="1.0" xmlns="http://www.w3.org/2000/svg"
 width="384.000000pt" height="384.000000pt" viewBox="0 0 384.000000 384.000000"
 preserveAspectRatio="xMidYMid meet">
<metadata>
Created by potrace 1.14, written by Peter Selinger 2001-2017
</metadata>
<g transform="translate(0.000000,384.000000) scale(0.100000,-0.100000)"
fill="#000000" stroke="none">
<path d="M0 2905 l0 -934 22 -12 c13 -6 41 -29 63 -50 37 -35 48 -40 115 -49
113 -14 202 -12 227 5 17 12 20 22 16 53 -6 47 11 83 66 137 40 39 41 39 78
26 62 -22 102 -59 134 -125 33 -68 103 -156 124 -156 19 0 61 60 68 97 7 33 3
39 -70 98 -18 15 -33 35 -33 45 0 20 150 150 174 150 8 0 25 -13 38 -30 33
-42 95 -72 120 -59 14 7 18 17 14 32 -7 30 21 57 59 57 63 0 83 -56 66 -188
-15 -109 -39 -192 -58 -199 -10 -4 -28 9 -50 35 -29 35 -40 42 -72 42 -31 0
-45 -8 -91 -55 -30 -30 -62 -55 -71 -55 -20 0 -49 -31 -49 -54 0 -10 9 -29 20
-43 11 -14 20 -33 20 -41 0 -17 -36 -66 -93 -129 l-39 -43 -87 6 c-102 7 -152
-9 -170 -53 -6 -15 -18 -39 -26 -53 -9 -14 -14 -38 -13 -55 3 -27 7 -30 40
-33 52 -4 64 -23 48 -72 -7 -22 -24 -49 -36 -61 -16 -15 -24 -34 -24 -55 0
-18 -5 -36 -10 -39 -12 -7 -14 -75 -2 -75 5 0 16 27 26 60 10 33 22 63 28 66
12 7 39 -16 32 -27 -3 -5 3 -12 13 -16 10 -3 26 -13 35 -21 22 -18 110 -63
115 -58 2 2 -6 19 -19 38 -13 18 -31 54 -42 78 -10 25 -22 53 -28 64 -7 13 -6
23 5 33 13 14 20 10 61 -27 27 -25 50 -39 55 -34 5 5 14 32 20 59 12 48 35 85
52 85 21 0 40 -76 34 -132 -6 -58 4 -79 28 -60 7 6 23 12 37 14 24 3 26 8 35
93 6 50 14 97 18 105 3 8 8 30 9 49 2 19 9 37 17 39 12 4 13 -7 6 -64 -16
-145 -15 -187 7 -211 l21 -22 -32 -37 c-33 -37 -38 -69 -11 -69 26 -1 80 -29
80 -42 0 -18 42 -43 65 -38 11 2 23 4 26 4 4 1 10 12 13 26 5 20 -1 31 -34 62
-44 39 -74 88 -65 103 10 16 87 -1 149 -31 94 -47 99 -42 67 59 -11 33 -17 70
-14 82 4 15 -3 30 -23 51 -17 18 -24 33 -18 38 11 11 101 -3 156 -24 34 -13
37 -13 31 3 -4 9 -20 37 -36 60 -48 72 -84 210 -58 226 10 6 67 -36 89 -66 7
-9 18 -23 25 -30 7 -7 26 -35 41 -62 l29 -49 22 77 c29 99 37 107 63 62 30
-51 44 -110 44 -188 0 -83 8 -85 79 -22 56 49 92 56 97 17 4 -28 -22 -106 -48
-141 -17 -25 -18 -32 -6 -82 12 -52 15 -55 43 -55 16 0 36 -5 44 -11 8 -6 24
-14 37 -17 18 -4 25 0 33 20 11 28 35 26 32 -4 -3 -27 53 -81 68 -66 12 12 15
108 4 142 -12 38 17 35 55 -5 20 -22 40 -47 43 -55 5 -11 10 -9 24 10 48 63
91 104 101 97 17 -10 15 -85 -3 -136 -8 -23 -15 -44 -15 -46 0 -2 7 -4 15 -4
8 0 15 5 15 10 0 18 38 53 49 46 13 -8 81 41 81 57 0 15 141 157 155 157 6 0
27 16 46 36 18 20 44 40 57 45 21 8 31 29 13 29 -16 0 -159 -38 -171 -45 -6
-4 -15 -18 -21 -32 -7 -20 -15 -24 -41 -21 -26 2 -33 9 -43 37 -16 49 -35 58
-70 35 -33 -21 -97 -45 -104 -39 -7 7 21 35 35 35 8 0 24 17 38 38 13 20 47
57 75 82 83 71 114 101 109 105 -2 2 -24 -3 -48 -12 -56 -20 -205 -30 -214
-14 -10 16 73 93 124 115 25 10 63 27 85 37 22 10 54 20 70 21 34 3 35 10 8
80 l-18 48 26 25 c20 21 36 26 86 28 52 2 65 -2 85 -20 39 -37 54 -29 90 42
18 36 37 75 43 85 13 26 23 25 23 -2 0 -34 32 -172 43 -182 5 -6 9 -19 9 -30
0 -31 22 -3 24 31 4 46 14 55 57 51 41 -4 49 4 49 49 0 18 4 24 14 20 9 -4 20
7 31 29 17 37 36 40 45 8 3 -10 12 -19 20 -19 9 0 14 -8 13 -19 -1 -13 2 -15
10 -7 17 17 24 14 41 -21 15 -29 15 -33 -4 -65 -15 -26 -18 -39 -10 -53 13
-24 4 -48 -22 -55 -34 -12 -45 -75 -12 -75 18 0 18 -34 1 -48 -19 -16 -90 -21
-106 -9 -10 9 -20 3 -45 -25 -50 -58 -76 -95 -76 -107 0 -6 -5 -11 -12 -11
-19 0 -47 -31 -41 -46 11 -28 39 -14 63 33 33 61 50 66 50 14 0 -22 -4 -43
-10 -46 -13 -8 -13 -65 0 -65 5 0 16 13 24 28 8 16 21 34 29 41 13 10 13 18
-1 60 -21 68 -13 85 39 78 23 -3 51 -15 64 -27 25 -24 45 -20 45 9 0 10 9 43
19 73 11 31 19 72 18 92 -1 48 16 65 42 42 30 -27 42 -12 35 45 -7 54 7 70 45
50 20 -11 20 -10 14 34 -7 51 2 56 36 19 13 -13 29 -23 35 -21 6 2 13 41 17
93 7 102 15 134 34 134 16 0 24 -36 28 -120 l2 -55 24 48 c42 80 60 56 36 -47
-8 -37 -13 -72 -9 -77 3 -5 -2 -19 -10 -31 -22 -31 -20 -45 2 -25 10 10 22 17
27 17 5 0 17 7 27 17 10 9 21 14 24 10 10 -9 -53 -131 -82 -157 -35 -33 -76
-98 -69 -110 4 -6 23 -10 44 -10 39 0 39 0 52 57 19 77 36 79 44 6 10 -79 20
-97 35 -59 6 16 12 41 14 57 1 16 6 32 9 36 4 3 7 12 7 20 0 23 70 163 82 163
11 0 7 -81 -9 -170 l-5 -35 31 29 31 30 0 855 c0 676 -3 864 -13 893 -16 46
-15 45 -57 52 -31 4 -43 13 -68 51 -4 6 -16 15 -26 21 -11 6 -24 19 -30 30
-52 95 -74 104 -125 49 -47 -52 -82 -43 -106 30 -8 23 -17 31 -40 33 -90 9
-112 43 -65 102 34 43 54 49 81 24 16 -14 20 -14 39 -1 12 8 28 25 36 36 l15
21 -287 0 -286 0 6 -23 c8 -33 -3 -64 -25 -70 -14 -4 -28 6 -51 34 -37 46 -64
53 -54 13 9 -36 -9 -54 -54 -54 -27 0 -48 -8 -68 -25 -17 -14 -33 -22 -36 -17
-3 5 -16 9 -28 8 -13 -1 -36 8 -51 21 -37 30 -72 29 -109 -2 -16 -14 -34 -25
-39 -25 -12 0 -69 101 -69 123 0 16 -62 17 -1165 17 l-1165 0 0 -935z m2412
711 c13 -19 9 -46 -7 -46 -17 0 -55 30 -55 43 0 5 7 7 14 4 10 -4 13 -1 9 9
-4 10 0 12 13 7 11 -3 22 -11 26 -17z m180 -36 c32 -37 18 -51 -16 -17 -14 14
-27 22 -30 19 -3 -3 -6 -1 -6 5 0 11 10 23 19 23 4 0 18 -13 33 -30z m-98
-532 c7 -13 14 -37 14 -55 0 -22 14 -50 41 -86 42 -56 48 -75 31 -107 -14 -27
-4 -45 36 -60 47 -19 60 -36 44 -55 -18 -22 -37 -18 -73 15 -18 16 -36 30 -42
31 -5 0 -18 2 -27 4 -9 2 -22 -3 -29 -11 -6 -8 -21 -14 -33 -14 -21 0 -76 -43
-76 -59 0 -5 -14 -11 -31 -15 -18 -3 -51 -24 -75 -46 -24 -22 -48 -40 -53 -40
-17 0 -100 -88 -107 -114 -7 -29 -43 -56 -72 -53 -11 0 -19 4 -16 8 2 4 -2 9
-8 12 -16 5 47 67 68 67 19 0 18 36 -1 44 -17 6 -95 -7 -137 -23 -24 -9 -28
-8 -28 7 1 24 21 48 48 56 29 10 28 39 -3 70 -41 41 -33 73 33 132 31 28 68
57 82 64 14 7 37 24 52 38 22 20 37 25 70 24 52 -2 137 28 130 46 -9 28 10 61
60 100 60 47 82 51 102 20z m234 -240 c2 -18 -4 -31 -19 -41 -25 -18 -40 -14
-57 14 -11 18 -11 24 4 40 26 29 68 22 72 -13z m-940 -136 c4 -29 -59 -98 -82
-89 -26 10 -32 39 -11 51 10 6 29 23 43 39 29 31 45 31 50 -1z m842 -67 c6 -3
10 -15 10 -26 0 -21 -29 -26 -61 -9 -15 9 -17 15 -9 30 10 18 36 20 60 5z
m-830 -91 c0 -9 -5 -14 -12 -12 -18 6 -21 28 -4 28 9 0 16 -7 16 -16z m-1640
-109 c16 -19 5 -47 -16 -43 -27 5 -42 37 -24 48 20 13 26 12 40 -5z m1847
-125 c1 -11 -2 -18 -8 -15 -11 7 -12 35 -1 35 4 0 8 -9 9 -20z m93 -9 c0 -4
-7 -8 -15 -8 -16 0 -20 9 -9 20 8 8 24 -1 24 -12z m14 -95 c48 -64 44 -79 -31
-117 -64 -33 -86 -23 -98 44 -6 31 -3 44 18 76 22 33 29 37 56 33 21 -3 40
-16 55 -36z"/>
<path d="M2163 2792 c-17 -10 -36 -62 -34 -91 1 -31 16 -41 59 -41 52 0 72 15
72 56 0 56 -57 101 -97 76z"/>
<path d="M3517 3773 c-21 -20 12 -74 49 -79 23 -4 29 44 9 66 -18 20 -46 26
-58 13z"/>
<path d="M0 1812 c0 -56 1 -59 32 -75 18 -9 40 -22 49 -29 39 -27 68 33 37 74
-18 23 -98 88 -109 88 -5 0 -9 -26 -9 -58z"/>
<path d="M2968 1589 c-17 -9 -26 -39 -12 -39 16 0 44 23 44 35 0 17 -8 18 -32
4z"/>
<path d="M3554 1448 c-24 -26 -23 -78 2 -99 22 -18 25 -7 22 61 l-3 62 -21
-24z"/>
<path d="M3450 1365 c-14 -17 -7 -31 18 -37 15 -4 17 0 14 23 -5 32 -14 36
-32 14z"/>
<path d="M3104 1356 c-8 -22 3 -33 18 -18 9 9 9 15 0 24 -9 9 -13 7 -18 -6z"/>
<path d="M3335 1331 c-8 -14 -65 -41 -86 -41 -10 0 -21 -4 -24 -10 -3 -5 -16
-10 -29 -10 -24 0 -56 -28 -56 -48 0 -17 14 -15 55 8 20 11 38 20 40 20 15 0
2 -57 -17 -77 -17 -18 -19 -26 -10 -35 7 -7 12 -20 12 -30 0 -23 29 -23 37 0
7 21 43 62 55 62 4 0 8 -10 8 -22 0 -23 2 -23 101 -20 116 4 126 -6 44 -48
-41 -21 -53 -36 -87 -100 -21 -41 -40 -75 -41 -77 -2 -1 -20 2 -41 8 -33 9
-41 8 -71 -15 -18 -14 -40 -32 -48 -40 -8 -8 -17 -13 -21 -11 -3 3 -2 0 3 -6
6 -7 39 -10 89 -8 69 4 79 2 72 -11 -15 -28 -52 -52 -71 -47 -10 3 -22 1 -25
-5 -4 -5 -19 -7 -35 -4 -16 3 -29 2 -29 -2 0 -4 -12 -7 -27 -7 -19 0 -33 10
-52 39 l-25 38 -12 -33 c-8 -23 -8 -42 -1 -59 11 -28 10 -96 -1 -116 -6 -10
-16 -5 -40 17 -18 17 -38 28 -45 25 -7 -3 -27 -15 -44 -26 -43 -25 -42 -14 0
25 19 16 36 40 39 52 5 20 3 22 -26 16 -52 -10 -126 -64 -126 -93 0 -12 45
-24 59 -15 6 3 11 3 11 -2 0 -4 -29 -21 -64 -38 -46 -21 -60 -32 -50 -38 23
-13 16 -27 -14 -27 -15 0 -38 -7 -50 -16 -24 -17 -27 -13 -12 19 10 22 10 22
-6 0 -19 -27 -58 -30 -81 -7 -10 9 -18 12 -22 5 -4 -5 -30 -13 -59 -17 -29 -4
-59 -13 -67 -20 -7 -8 -21 -14 -29 -14 -9 0 -16 -8 -16 -20 0 -11 -4 -20 -10
-20 -5 0 -10 -7 -10 -15 0 -8 -9 -15 -19 -15 -11 0 -30 -4 -43 -9 -13 -5 -27
-9 -31 -9 -13 -2 -37 -30 -37 -45 0 -9 12 -14 37 -15 20 -1 43 -8 50 -15 11
-11 10 -16 -7 -33 -11 -10 -33 -32 -48 -47 -20 -22 -33 -27 -53 -23 -22 4 -28
1 -33 -17 -3 -12 -30 -41 -61 -65 -33 -26 -55 -51 -55 -63 0 -10 -4 -19 -10
-19 -5 0 -10 -6 -10 -14 0 -8 -6 -17 -12 -19 -7 -3 40 -6 105 -6 64 -1 117 1
117 4 0 2 -11 10 -25 17 l-24 13 41 63 c22 34 39 65 36 67 -3 3 -21 -6 -41
-20 -37 -25 -48 -22 -24 6 14 18 93 43 107 34 7 -4 7 -13 0 -25 -5 -10 -10
-28 -10 -39 0 -12 -4 -21 -9 -21 -4 0 -9 -22 -10 -50 l-1 -50 175 0 176 0 -22
29 c-18 25 -21 39 -17 90 3 37 0 62 -6 65 -7 3 -6 5 2 5 6 1 12 7 12 14 0 6
14 23 30 37 17 14 39 33 50 42 11 10 29 18 39 18 11 0 23 5 26 11 4 6 13 8 21
5 9 -3 14 1 14 13 0 10 7 22 16 25 24 9 31 7 14 -4 -13 -9 -10 -14 14 -33 17
-12 41 -24 55 -27 15 -3 26 -12 26 -20 0 -8 -5 -14 -12 -13 -7 2 -17 -7 -23
-18 -7 -11 -18 -18 -25 -15 -8 3 -17 1 -20 -4 -8 -14 6 -40 22 -40 9 0 13 6
10 14 -3 8 1 20 9 26 8 7 14 9 14 5 0 -4 7 -2 15 5 8 7 15 8 15 3 0 -6 26 -9
60 -8 33 1 60 -2 60 -7 0 -4 5 -8 11 -8 6 0 8 8 4 19 -3 11 -1 22 5 26 5 3 10
1 10 -4 0 -6 6 -10 13 -8 7 1 11 -6 9 -17 -3 -17 -2 -18 12 -7 9 8 16 25 16
39 0 23 2 24 40 18 26 -4 40 -2 40 5 0 6 7 3 16 -5 13 -13 57 -22 87 -17 4 0
7 -4 7 -9 0 -5 5 -9 11 -7 6 1 14 -5 17 -13 2 -8 1 -12 -3 -8 -4 4 -23 1 -42
-7 -20 -8 -51 -15 -69 -15 -27 0 -34 -4 -34 -19 0 -13 9 -21 29 -26 33 -7 105
-80 96 -95 -12 -19 -89 -10 -139 15 -27 14 -55 25 -63 25 -16 0 -18 -66 -3
-75 6 -4 8 -11 5 -16 -4 -5 132 -9 349 -9 l356 0 0 263 c0 145 -3 266 -6 269
-3 4 -19 2 -35 -2 -20 -6 -46 -4 -80 6 -51 15 -84 14 -164 -6 -22 -5 -84 -10
-137 -10 l-98 0 0 42 c0 23 -5 68 -12 100 -7 31 -10 59 -7 62 2 2 32 -1 66 -8
51 -11 66 -11 80 -1 20 15 24 36 10 46 -6 4 2 15 17 24 24 16 26 22 26 91 0
43 4 74 10 74 6 0 10 -11 10 -24 0 -14 5 -28 10 -31 6 -3 10 -19 10 -36 0 -33
7 -36 26 -11 14 18 19 122 7 122 -18 0 -33 59 -33 127 0 40 -4 73 -9 73 -5 0
-11 12 -13 28 -2 22 -9 28 -33 30 -62 6 -125 51 -125 89 0 23 -14 31 -25 14z
m72 -434 c-10 -19 -17 -23 -28 -16 -12 8 -10 13 10 29 29 25 35 21 18 -13z
m-331 -184 c-10 -10 -19 5 -10 18 6 11 8 11 12 0 2 -7 1 -15 -2 -18z m0 -117
c-3 -12 -14 -26 -24 -33 -19 -11 -19 -11 -1 38 11 27 20 59 21 72 1 12 3 4 5
-17 3 -22 2 -49 -1 -60z m-96 9 c0 -9 -30 -65 -34 -65 -4 0 1 30 10 58 3 12
24 18 24 7z m203 -68 c5 -14 -46 -80 -56 -71 -3 3 -5 -9 -4 -28 1 -18 6 -31
11 -30 9 4 26 -16 26 -31 0 -12 -72 -40 -79 -30 -3 5 -15 9 -26 8 -11 0 -20 4
-20 10 0 6 3 9 8 8 4 -2 7 0 7 5 0 4 14 13 31 21 24 11 29 18 25 36 -3 12 1
30 9 41 8 10 15 27 15 36 0 9 8 22 18 27 23 14 29 13 35 -2z m47 -17 c0 -5 -5
-10 -11 -10 -5 0 -7 5 -4 10 3 6 8 10 11 10 2 0 4 -4 4 -10z m-260 -149 c6
-11 6 -22 1 -25 -5 -3 -11 1 -15 9 -4 11 -17 14 -48 11 -24 -2 -33 -2 -20 1
12 2 20 8 18 12 -3 4 8 8 24 9 20 2 32 -4 40 -17z m251 -24 c-8 -8 -11 -5 -11
9 0 27 14 41 18 19 2 -9 -1 -22 -7 -28z m-14 -49 c-3 -7 -5 -2 -5 12 0 14 2
19 5 13 2 -7 2 -19 0 -25z m-628 -190 c-11 -21 -11 -22 4 -9 14 11 17 11 17 0
0 -8 -4 -20 -9 -28 -7 -11 -11 -9 -21 8 -9 17 -9 26 1 37 17 21 21 17 8 -8z
m-71 -46 c-11 -8 -17 -20 -14 -28 5 -12 2 -12 -17 -3 -29 15 -37 24 -14 16 16
-6 19 -3 21 26 2 19 18 26 31 14 10 -9 8 -15 -7 -25z m39 16 c-3 -8 -6 -5 -6
6 -1 11 2 17 5 13 3 -3 4 -12 1 -19z"/>
<path d="M2831 1306 c-18 -22 -10 -50 17 -54 26 -4 30 23 9 52 -12 16 -14 16
-26 2z"/>
<path d="M1405 1140 c3 -5 8 -10 11 -10 2 0 4 5 4 10 0 6 -5 10 -11 10 -5 0
-7 -4 -4 -10z"/>
<path d="M1756 1073 c-14 -14 -36 -75 -31 -84 3 -4 17 -3 30 3 20 9 25 19 25
50 0 36 -8 47 -24 31z"/>
<path d="M2540 1064 c-42 -23 -122 -116 -110 -128 5 -5 10 -20 10 -33 0 -44
33 -21 46 32 4 17 16 36 26 43 17 13 68 85 68 97 0 8 -12 4 -40 -11z"/>
<path d="M2659 1034 c-30 -34 -32 -61 -7 -67 29 -8 30 -7 26 43 -3 40 -4 41
-19 24z"/>
<path d="M3692 939 c2 -7 10 -15 17 -17 8 -3 12 1 9 9 -2 7 -10 15 -17 17 -8
3 -12 -1 -9 -9z"/>
<path d="M3792 934 c-26 -13 -52 -56 -52 -85 0 -17 3 -18 23 -7 12 7 34 24 50
37 45 41 30 82 -21 55z"/>
<path d="M2725 880 c-9 -15 4 -30 27 -30 14 0 18 5 14 16 -3 9 -6 18 -6 20 0
8 -29 4 -35 -6z"/>
<path d="M3617 883 c9 -3 9 -9 1 -22 -8 -14 -6 -24 8 -46 l18 -28 7 24 c3 13
0 31 -6 39 -7 8 -10 21 -8 28 3 7 -3 12 -14 11 -10 0 -13 -3 -6 -6z"/>
<path d="M820 826 c0 -2 11 -6 25 -8 13 -3 22 -1 19 3 -5 9 -44 13 -44 5z"/>
<path d="M780 727 c-19 -31 -22 -67 -4 -67 9 0 14 10 14 28 0 15 5 33 11 39 6
6 7 13 2 16 -5 3 -15 -4 -23 -16z"/>
<path d="M830 709 c0 -11 4 -18 9 -15 15 10 56 -54 63 -98 2 -11 9 -21 16 -24
11 -3 12 0 3 17 -7 11 -10 21 -9 22 2 0 17 3 33 5 54 8 60 13 39 29 -10 8 -29
15 -42 15 -12 0 -25 7 -28 15 -4 8 -12 15 -18 15 -7 0 -22 9 -34 20 -27 25
-32 25 -32 -1z"/>
<path d="M3643 713 c-4 -10 -10 -21 -15 -24 -12 -8 29 -42 41 -34 18 10 14 75
-4 75 -9 0 -19 -8 -22 -17z"/>
<path d="M0 629 c0 -11 4 -17 10 -14 13 8 13 35 0 35 -5 0 -10 -9 -10 -21z"/>
<path d="M1233 544 c-8 -22 5 -107 19 -115 6 -4 8 -16 5 -28 -4 -18 -1 -21 21
-20 26 0 77 17 58 18 -5 1 -4 7 1 14 22 29 13 65 -26 106 -41 43 -68 52 -78
25z"/>
<path d="M310 485 c-14 -7 -33 -16 -43 -19 -13 -4 -15 -10 -8 -23 5 -10 12
-26 15 -36 7 -23 16 -17 55 32 24 30 28 41 18 49 -9 7 -20 7 -37 -3z"/>
<path d="M620 482 c0 -11 5 -24 10 -27 6 -4 9 2 7 14 -4 29 -17 39 -17 13z"/>
<path d="M1300 325 c7 -9 15 -13 17 -11 7 7 -7 26 -19 26 -6 0 -6 -6 2 -15z"/>
<path d="M2197 327 c-8 -21 2 -27 28 -16 16 6 16 8 3 8 -9 1 -18 6 -20 13 -3
8 -7 6 -11 -5z"/>
<path d="M780 300 c0 -20 5 -30 15 -30 8 0 14 -8 13 -17 -4 -56 0 -61 42 -56
33 5 40 3 40 -12 0 -9 6 -15 13 -13 12 5 34 84 25 93 -3 3 -21 -2 -41 -10 -54
-23 -71 -20 -56 8 7 12 17 25 23 29 15 10 -23 37 -51 38 -19 0 -23 -5 -23 -30z"/>
<path d="M2068 294 c-13 -8 -31 -17 -40 -20 -10 -3 -18 -13 -18 -21 0 -8 -5
-11 -12 -7 -7 4 -8 3 -4 -5 4 -6 2 -19 -6 -28 -8 -10 -8 -14 -1 -10 6 4 15 2
18 -4 4 -6 18 -8 34 -4 25 7 50 13 61 14 3 1 17 12 33 25 28 24 37 65 15 67
-7 1 -23 3 -35 4 -12 1 -33 -4 -45 -11z"/>
<path d="M1165 275 c17 -14 34 -25 38 -25 5 0 -5 11 -21 25 -17 14 -34 25 -38
25 -5 -1 5 -12 21 -25z"/>
<path d="M965 253 c-4 -18 -11 -33 -16 -33 -14 0 -11 -20 6 -36 13 -14 15 -13
15 10 0 14 8 30 18 35 11 7 13 13 6 18 -6 5 -14 15 -17 23 -3 10 -8 3 -12 -17z"/>
<path d="M350 194 c-15 -38 -12 -53 8 -47 10 2 24 -2 30 -10 14 -16 6 -46 -12
-48 -6 -1 7 -5 29 -8 30 -5 46 -2 66 12 33 23 60 19 75 -11 20 -41 32 -47 51
-29 13 11 19 34 21 76 4 67 8 62 -78 75 -19 3 -46 8 -59 12 -16 5 -22 4 -17
-4 11 -19 -11 -22 -48 -7 -48 20 -55 19 -66 -11z"/>
<path d="M1160 195 c0 -21 5 -25 28 -25 45 0 58 15 31 34 -35 24 -59 21 -59
-9z"/>
<path d="M2830 212 c0 -7 -6 -10 -12 -7 -7 4 -4 -1 6 -9 24 -19 32 -14 17 11
-6 11 -11 13 -11 5z"/>
<path d="M2914 203 c-17 -13 -17 -13 6 -9 14 2 28 5 33 5 4 1 7 5 7 9 0 13
-25 10 -46 -5z"/>
<path d="M2763 148 c-2 -22 -16 -64 -32 -94 l-29 -54 79 0 c43 0 79 3 79 8 0
4 -7 15 -14 25 -7 9 -11 32 -9 50 9 84 10 82 -22 85 -16 2 -34 7 -40 12 -6 5
-11 -7 -12 -32z"/>
<path d="M916 117 c-10 -37 -26 -73 -35 -80 -38 -27 -34 -37 15 -37 l46 0 -6
35 c-7 34 -6 35 24 35 28 0 30 2 30 40 l0 40 -24 -15 c-24 -16 -25 -16 -28 17
-3 29 -5 25 -22 -35z"/>
<path d="M1015 117 c-4 -18 -9 -40 -11 -49 -4 -14 1 -18 25 -18 16 0 33 -4 36
-10 3 -5 12 -10 18 -10 8 0 7 4 -2 9 -12 8 -13 14 -3 36 17 37 16 39 -22 58
l-35 16 -6 -32z"/>
<path d="M1479 125 c-3 -2 -19 -5 -37 -7 -18 -1 -32 -4 -32 -6 0 -8 42 -63 46
-60 2 2 10 21 19 41 14 34 15 44 4 32z"/>
<path d="M1361 78 c-1 -10 8 -22 18 -28 31 -16 43 -12 24 8 -10 11 -21 17 -25
15 -3 -2 -9 3 -11 9 -3 8 -6 6 -6 -4z"/>
<path d="M2990 15 c-11 -13 -7 -15 26 -15 36 1 38 2 20 15 -25 19 -31 19 -46
0z"/>
</g>
</svg>
