<?xml version="1.0" standalone="no"?>
<!DOCTYPE svg PUBLIC "-//W3C//DTD SVG 20010904//EN"
 "http://www.w3.org/TR/2001/REC-SVG-20010904/DTD/svg10.dtd">
<svg version="1.0" xmlns="http://www.w3.org/2000/svg"
 width="768.000000pt" height="768.000000pt" viewBox="0 0 768.000000 768.000000"
 preserveAspectRatio="xMidYMid meet">
<metadata>
Created by potrace 1.14, written by Peter Selinger 2001-2017
</metadata>
<g transform="translate(0.000000,768.000000) scale(0.100000,-0.100000)"
fill="#000000" stroke="none">
<path d="M0 5818 c0 -1689 1 -1863 16 -1879 9 -10 22 -15 30 -12 8 3 14 1 14
-5 0 -5 14 -15 30 -22 29 -12 90 -62 90 -73 0 -12 61 -65 87 -75 15 -6 51 -14
78 -17 28 -4 95 -13 149 -21 131 -19 221 -18 282 3 51 17 98 59 89 81 -2 6 1
12 8 12 8 0 8 3 -2 9 -36 23 18 156 103 257 63 75 112 111 148 108 36 -4 124
-42 174 -75 44 -30 124 -117 124 -135 0 -51 181 -320 219 -325 3 0 15 -2 27
-4 22 -5 94 57 94 81 0 7 7 17 16 22 11 6 13 11 5 16 -8 5 -6 16 5 38 12 22
12 28 2 22 -11 -6 -11 -5 0 8 21 26 -9 70 -83 123 -91 65 -106 86 -93 131 12
44 40 77 98 117 25 17 52 37 61 46 38 39 142 127 156 132 36 13 73 -4 123 -57
29 -30 66 -62 84 -71 17 -8 44 -25 61 -37 42 -29 61 -29 90 0 23 23 24 27 10
53 -8 16 -11 32 -7 36 4 5 2 5 -5 1 -16 -9 -27 12 -14 28 6 7 7 16 3 21 -4 4
3 5 16 2 12 -3 20 -1 17 3 -3 5 13 14 35 20 22 6 40 14 40 19 0 7 98 -10 130
-23 22 -9 41 -43 56 -101 22 -82 19 -144 -25 -435 -19 -123 -53 -233 -81 -257
-23 -20 -26 -20 -42 -6 -10 9 -18 12 -18 7 0 -11 -28 28 -28 40 0 5 -4 12 -9
15 -4 3 -21 24 -38 46 -52 70 -59 74 -114 71 -52 -4 -111 -33 -134 -67 -51
-72 -165 -169 -200 -169 -9 0 -17 -5 -17 -12 0 -6 -3 -9 -6 -5 -8 8 -44 -25
-38 -35 3 -4 -1 -8 -8 -8 -8 0 -15 -13 -16 -31 -2 -23 7 -43 33 -74 55 -67 54
-125 -4 -186 -21 -22 -41 -46 -76 -94 -16 -22 -55 -66 -88 -98 -64 -65 -97
-75 -172 -55 -69 19 -214 12 -276 -12 -52 -21 -119 -79 -119 -105 0 -6 -9 -20
-21 -31 -55 -49 -77 -149 -45 -199 12 -18 26 -23 75 -27 47 -3 66 -10 82 -27
27 -29 33 -66 15 -94 -8 -12 -17 -34 -20 -49 -5 -32 -22 -64 -39 -75 -6 -4
-16 -15 -22 -24 -5 -9 -18 -28 -28 -42 -20 -28 -24 -51 -13 -84 5 -16 -1 -30
-25 -58 -42 -47 -53 -127 -21 -144 27 -14 38 1 46 60 3 26 13 59 21 75 7 16
16 42 19 58 7 40 18 48 57 44 31 -3 34 -6 39 -43 4 -36 8 -40 33 -41 17 -1 34
-10 43 -23 8 -11 21 -21 28 -21 8 0 17 -7 20 -16 3 -9 13 -14 21 -11 7 3 24
-5 37 -18 13 -14 33 -25 46 -25 12 0 30 -9 39 -20 18 -21 63 -28 63 -10 0 6
-13 23 -28 38 -16 16 -32 40 -35 54 -4 15 -14 33 -22 41 -7 8 -17 26 -21 41
-3 14 -12 30 -20 34 -8 4 -17 30 -20 57 -4 28 -12 55 -19 60 -21 18 -32 49
-25 75 5 21 12 25 42 24 40 -1 46 -5 129 -88 l59 -59 24 24 c18 19 24 38 28
86 3 39 10 69 21 81 9 10 17 26 17 36 0 24 51 86 71 86 16 0 33 -33 29 -55 -1
-5 7 -15 17 -23 16 -11 18 -32 21 -167 4 -155 4 -155 27 -155 13 0 31 7 40 16
9 9 33 18 53 21 20 2 42 6 48 8 6 2 14 42 18 90 5 55 13 93 22 102 10 11 14
40 14 109 0 77 3 94 15 94 12 0 15 13 15 58 0 31 3 67 6 79 7 25 39 36 54 18
16 -19 5 -166 -13 -177 -33 -18 -33 -333 0 -345 21 -8 63 -48 63 -60 0 -5 -10
-19 -22 -30 -13 -11 -39 -38 -59 -59 -57 -62 -63 -127 -10 -123 41 2 89 -12
95 -28 4 -8 12 -13 20 -10 21 8 58 -31 51 -54 -4 -10 -2 -19 4 -19 5 0 22 -11
37 -25 23 -21 35 -24 73 -21 25 2 52 4 59 5 6 1 12 12 12 24 0 13 9 32 20 42
30 27 26 54 -9 61 -36 8 -157 129 -166 167 -4 14 -13 31 -21 38 -8 6 -14 22
-14 35 0 24 1 24 91 22 54 -1 96 -6 103 -13 6 -7 30 -18 51 -26 22 -8 44 -20
48 -26 4 -7 16 -13 26 -13 10 0 28 -9 41 -20 20 -18 40 -21 108 -20 4 0 6 28
4 63 -1 44 -7 66 -18 74 -10 7 -19 32 -22 60 -2 26 -13 59 -23 72 -19 24 -19
24 1 43 11 10 20 26 20 34 0 9 -27 42 -60 74 -67 65 -78 99 -32 101 96 3 138
-3 153 -20 11 -14 33 -20 80 -22 48 -3 67 -8 78 -22 7 -10 19 -16 26 -13 7 2
18 -1 24 -7 8 -8 11 -3 9 18 -2 19 -17 45 -40 70 -21 21 -38 46 -38 55 0 9
-11 31 -24 49 -14 18 -22 39 -20 46 3 7 -2 15 -10 18 -17 7 -38 71 -30 92 3 7
-4 23 -15 34 -12 12 -21 33 -22 49 0 15 -2 50 -5 79 -2 28 0 63 6 78 9 24 11
25 37 11 16 -8 41 -28 57 -45 17 -17 40 -31 52 -31 19 0 25 -8 34 -40 6 -24
17 -40 25 -40 8 0 15 -4 15 -8 0 -4 18 -28 40 -52 22 -24 40 -52 40 -61 0 -10
6 -24 13 -31 21 -21 39 -57 32 -67 -3 -5 4 -13 16 -16 34 -11 45 21 39 108 -1
17 5 34 15 41 10 7 19 31 22 55 6 49 41 110 64 111 20 0 39 -20 39 -41 0 -9 9
-28 21 -42 11 -15 22 -35 24 -46 2 -11 11 -31 20 -45 9 -13 16 -33 15 -43 -7
-66 1 -173 15 -187 20 -19 19 -52 -1 -60 -11 -4 -14 -17 -12 -48 3 -41 4 -43
38 -46 31 -2 43 5 110 69 87 82 113 96 171 91 l41 -4 -4 -85 c-4 -66 -8 -87
-21 -95 -10 -5 -17 -20 -16 -36 2 -35 -13 -70 -44 -103 -37 -38 -50 -68 -38
-83 14 -17 41 -123 41 -163 l0 -33 73 0 c61 0 74 -3 85 -20 8 -14 23 -20 46
-20 19 0 38 -4 41 -10 12 -19 55 21 55 51 0 26 4 29 30 29 29 0 30 -2 30 -45
0 -39 6 -51 43 -91 55 -59 71 -68 91 -49 10 10 13 28 11 55 -3 30 0 42 10 46
17 7 20 31 5 36 -6 2 -13 46 -17 99 -6 91 -5 97 15 108 18 10 28 4 86 -52 42
-41 68 -74 72 -93 3 -17 14 -36 25 -42 15 -10 23 -7 48 20 17 18 33 45 37 61
7 33 132 159 154 155 23 -5 22 -281 -1 -300 -9 -7 -19 -28 -22 -45 -5 -27 -2
-35 15 -44 18 -10 24 -8 35 7 7 10 11 25 8 32 -3 8 3 16 15 19 11 3 20 11 20
18 0 6 9 20 19 29 16 14 24 15 40 6 19 -9 30 -4 86 42 38 31 65 61 65 72 0 25
299 326 323 326 10 0 36 17 56 37 58 58 122 113 130 113 5 0 20 9 35 21 21 17
24 24 15 35 -15 19 -46 18 -57 -1 -9 -17 -38 -23 -109 -24 -23 -1 -48 -7 -55
-14 -7 -8 -32 -16 -56 -19 -52 -7 -99 -50 -104 -93 l-3 -30 -80 0 -80 0 -10
50 c-12 58 -57 112 -92 109 -12 0 -45 -20 -72 -43 -32 -27 -59 -42 -73 -40
-30 3 -78 -11 -78 -22 0 -15 -37 -10 -43 5 -6 16 39 60 72 71 23 7 81 61 81
76 0 5 0 12 0 17 1 13 184 192 197 192 7 0 13 6 13 14 0 8 11 17 25 20 29 7
125 101 125 121 0 20 -17 19 -28 -1 -6 -11 -23 -16 -56 -16 -33 0 -52 -5 -65
-19 -10 -11 -31 -19 -47 -19 -16 0 -90 -3 -165 -6 -119 -5 -137 -4 -152 11
-13 12 -14 21 -7 35 17 31 184 180 202 180 10 0 27 9 39 21 15 15 33 21 65 21
33 0 47 4 54 19 6 10 21 19 34 19 13 0 35 9 49 20 18 15 40 20 82 20 49 0 61
4 81 26 25 26 30 40 17 46 -24 10 -60 107 -62 164 -2 57 0 64 29 93 28 28 38
31 92 31 45 0 66 5 85 20 32 25 54 25 86 0 14 -11 29 -20 34 -19 20 4 33 -4
73 -41 23 -22 47 -40 52 -40 20 0 68 59 68 85 0 14 7 28 15 31 13 5 25 30 31
63 2 8 10 18 18 23 9 5 16 22 16 38 0 32 20 47 58 44 32 -2 34 -5 39 -81 4
-45 11 -72 21 -80 10 -8 16 -35 19 -80 3 -53 8 -71 23 -82 15 -10 20 -25 20
-62 0 -26 5 -51 10 -54 6 -3 10 -2 10 4 0 6 9 19 20 29 15 14 20 34 22 88 l3
69 93 0 c105 0 96 -8 106 94 6 60 22 78 47 55 18 -16 33 -19 24 -4 -7 11 13
49 34 66 8 6 11 16 8 21 -4 6 2 22 13 34 l20 24 19 -24 c10 -14 17 -31 14 -38
-3 -7 -2 -25 1 -39 l7 -25 18 22 c31 39 60 10 51 -51 -2 -12 2 -12 17 3 30 26
63 22 63 -7 0 -35 10 -56 26 -56 23 0 18 -66 -7 -89 -12 -11 -18 -24 -15 -29
3 -5 -3 -21 -14 -35 -18 -23 -19 -27 -5 -53 28 -54 13 -124 -26 -124 -25 0
-76 -49 -79 -76 -6 -50 0 -66 20 -61 25 7 46 -11 54 -47 6 -24 2 -34 -26 -59
-31 -29 -39 -31 -120 -34 -79 -2 -89 -1 -98 18 -10 18 -16 15 -82 -50 -38 -38
-67 -74 -64 -80 4 -5 -16 -35 -44 -66 -27 -30 -50 -64 -50 -75 0 -13 -9 -22
-27 -27 -33 -8 -83 -55 -83 -78 0 -17 7 -20 56 -29 29 -5 32 -2 44 35 7 21 16
39 20 39 7 0 22 33 24 56 1 6 14 26 30 44 22 27 31 32 44 23 14 -9 16 -24 14
-83 -2 -46 -8 -78 -18 -87 -15 -16 -20 -128 -6 -137 11 -6 46 40 57 74 4 13
23 40 41 59 38 41 44 94 13 124 -15 14 -19 33 -19 91 0 68 2 74 23 80 42 11
84 6 110 -14 14 -11 30 -19 34 -18 15 5 83 -46 89 -66 6 -17 9 -16 34 10 23
24 29 40 34 98 3 45 10 73 19 78 8 4 18 29 22 54 4 26 13 53 21 61 20 20 17
46 -6 66 -25 21 -25 31 -2 53 9 10 17 22 18 28 1 25 16 56 27 56 7 0 27 -16
46 -35 19 -19 37 -35 42 -35 11 0 49 50 49 65 0 6 -9 20 -20 30 -25 23 -28
106 -5 125 19 15 104 8 115 -10 8 -13 30 -6 30 9 0 4 -9 18 -20 31 -26 30 -28
111 -4 131 15 12 19 11 33 -10 8 -14 16 -31 16 -40 0 -11 11 -17 33 -19 20 -2
32 -9 32 -18 0 -19 7 -18 38 7 26 20 27 23 27 137 1 228 3 251 25 269 11 10
20 23 20 30 0 21 50 16 51 -4 1 -10 2 -22 4 -28 1 -5 3 -77 3 -158 2 -114 5
-148 15 -145 14 5 59 69 52 76 -2 3 5 16 15 30 11 13 20 32 20 41 0 23 20 41
43 41 18 0 19 -6 14 -106 -4 -83 -9 -108 -22 -118 -13 -9 -17 -29 -17 -94 0
-53 -4 -87 -12 -95 -19 -19 -38 -58 -32 -65 3 -3 16 4 29 16 13 12 31 22 41
22 11 0 29 10 41 23 37 36 53 47 70 47 20 0 20 -46 0 -54 -9 -3 -15 -11 -14
-18 2 -22 -12 -56 -26 -62 -7 -2 -15 -20 -19 -39 -4 -19 -13 -38 -22 -41 -8
-3 -14 -11 -13 -18 4 -25 -16 -53 -87 -123 -46 -46 -74 -82 -78 -102 -4 -17
-14 -34 -22 -37 -16 -6 -19 -42 -3 -51 14 -9 144 -9 158 0 6 3 11 30 11 58 0
29 7 65 15 81 8 15 17 39 19 52 7 34 15 44 37 44 11 0 19 -7 19 -17 1 -45 12
-190 16 -210 2 -13 11 -23 20 -23 11 0 14 -6 9 -22 l-6 -23 20 24 c12 13 21
30 21 39 0 8 7 23 15 33 11 11 16 38 16 87 0 57 3 70 15 65 8 -3 15 1 15 11 1
9 3 25 4 36 1 11 3 29 4 39 0 11 9 27 19 37 9 10 18 22 18 28 1 6 2 16 3 23 0
6 9 19 18 29 10 9 18 22 19 28 3 27 17 55 31 60 8 3 12 10 9 15 -10 16 16 61
36 61 16 0 18 -10 18 -102 0 -71 -4 -106 -14 -117 -16 -19 -31 -181 -17 -181
5 0 32 26 60 58 l51 57 0 1682 0 1682 -22 15 c-12 9 -17 16 -11 16 13 0 12 25
-2 37 -4 4 -5 2 0 -6 5 -9 3 -12 -6 -9 -8 3 -14 17 -13 31 1 22 -2 25 -12 16
-8 -6 -11 -15 -8 -20 3 -5 0 -9 -5 -9 -6 0 -11 5 -11 11 0 8 -6 7 -17 -2 -16
-13 -17 -12 -4 3 7 10 17 15 22 12 5 -3 9 0 9 5 0 14 -27 14 -35 1 -3 -5 -11
-10 -17 -10 -6 0 -8 3 -5 7 9 9 -13 34 -24 27 -5 -3 -6 2 -2 11 4 12 8 13 13
5 5 -8 10 -8 14 -2 10 16 -21 22 -34 6 -7 -8 -18 -14 -24 -14 -6 0 -5 4 3 9 8
5 16 17 17 25 1 9 -1 14 -6 11 -4 -2 -20 7 -34 20 -15 14 -31 25 -37 25 -5 0
-9 9 -9 21 0 14 -5 19 -15 16 -8 -4 -17 -1 -21 5 -4 7 -3 8 4 4 7 -4 12 -1 12
9 0 12 -5 15 -16 11 -11 -4 -15 -2 -11 8 4 11 1 13 -10 9 -11 -4 -14 -2 -9 5
5 8 1 10 -10 5 -14 -5 -16 -3 -11 12 6 13 4 15 -5 8 -9 -7 -22 -5 -43 8 -16
11 -24 19 -17 19 6 0 12 4 12 9 0 10 -19 9 -37 -2 -13 -8 -12 18 2 30 4 5 5 1
0 -7 -5 -8 -4 -12 0 -7 19 16 13 35 -9 29 -20 -5 -20 -5 -4 11 18 18 14 52 -5
40 -6 -4 -8 0 -4 9 8 22 -25 50 -49 42 -16 -5 -16 -4 -4 5 10 7 11 11 3 11 -7
0 -10 7 -7 18 4 12 3 13 -4 4 -6 -9 -18 -11 -35 -6 -15 3 -27 2 -27 -2 0 -5
-14 -15 -30 -22 -17 -8 -28 -17 -25 -22 3 -5 -1 -10 -7 -12 -7 -3 -13 -13 -13
-23 0 -10 -8 -19 -20 -21 -11 -2 -21 -8 -23 -13 -5 -15 -29 -14 -35 2 -4 9 -6
9 -6 0 -2 -32 -112 52 -126 97 -3 11 -14 20 -23 20 -15 0 -15 2 -2 10 11 7 11
10 2 10 -7 0 -10 5 -7 10 4 6 3 10 -2 9 -23 -4 -32 2 -26 18 4 10 2 14 -5 9
-6 -3 -13 -2 -17 4 -4 6 -11 8 -16 5 -5 -4 -21 3 -35 14 -15 12 -37 21 -50 21
-12 0 -26 5 -29 10 -4 6 -10 8 -15 5 -5 -3 -14 5 -21 17 -7 12 -18 28 -25 35
-7 7 -11 21 -9 30 2 10 4 21 4 24 1 3 16 22 35 41 19 20 32 39 29 42 -4 3 -1
6 6 6 6 0 22 10 34 23 62 62 61 62 117 33 27 -14 50 -22 50 -17 0 5 6 9 13 8
31 -1 48 4 42 12 -3 5 4 12 14 16 11 3 23 15 26 26 4 10 11 19 16 19 5 0 9 5
9 10 0 7 -188 10 -545 10 -512 0 -545 -1 -546 -17 -1 -10 0 -22 1 -28 14 -68
9 -100 -23 -136 -27 -30 -74 -36 -98 -12 -32 31 -49 44 -49 36 0 -4 -4 -3 -8
2 -11 16 -47 41 -39 28 4 -7 0 -17 -10 -23 -16 -11 -16 -11 2 -5 24 8 20 3
-28 -29 -21 -14 -47 -26 -58 -26 -11 0 -18 -4 -15 -8 3 -5 -14 -6 -37 -3 -48
8 -80 3 -72 -9 3 -5 -5 -12 -17 -16 -29 -9 -38 -22 -38 -56 0 -21 -4 -26 -17
-21 -11 4 -14 3 -9 -5 5 -8 2 -10 -8 -6 -9 3 -16 1 -16 -4 0 -6 8 -13 18 -15
15 -4 15 -5 0 -6 -9 0 -24 7 -34 16 -11 12 -19 14 -21 6 -4 -12 -62 4 -75 22
-4 6 -8 2 -8 -9 0 -17 -2 -17 -20 4 -17 19 -20 20 -20 6 0 -9 -5 -14 -10 -11
-6 4 -8 10 -5 15 3 5 1 11 -5 15 -15 9 -24 -23 -11 -38 8 -10 7 -14 -4 -14 -7
0 -14 3 -13 6 2 26 -4 41 -14 36 -7 -4 -4 1 6 9 11 9 15 16 9 16 -7 0 -19 -7
-27 -16 -13 -12 -16 -13 -16 -1 0 7 3 17 7 21 11 10 12 37 2 30 -5 -3 -7 -9
-4 -14 3 -4 -3 -14 -12 -21 -12 -10 -14 -10 -9 -1 5 8 1 12 -11 12 -17 1 -17
2 1 15 17 13 18 17 6 28 -9 8 -11 9 -6 0 4 -7 -2 -17 -14 -23 -12 -6 -20 -7
-20 -1 0 5 6 12 12 14 10 4 10 6 0 6 -8 1 -10 6 -6 14 6 8 3 8 -9 -1 -9 -8
-21 -11 -26 -7 -7 4 -8 -1 -4 -11 4 -12 3 -15 -5 -10 -7 4 -12 15 -13 24 0 11
-2 12 -6 4 -2 -6 -9 -10 -14 -7 -5 4 -6 -1 -3 -9 4 -11 -3 -17 -23 -22 -43
-10 -48 -16 -27 -32 18 -14 18 -14 0 -8 -15 5 -17 2 -13 -14 3 -11 2 -18 -3
-15 -4 3 -14 -3 -21 -12 -11 -13 -11 -15 -1 -9 11 6 12 1 9 -23 -4 -21 -2 -29
6 -24 7 4 8 0 4 -11 -5 -13 -3 -17 7 -13 10 4 13 1 10 -7 -3 -7 1 -20 8 -27 7
-8 13 -21 12 -29 -3 -37 -4 -43 -10 -37 -4 3 -15 -5 -26 -18 -11 -14 -23 -23
-28 -20 -5 3 -11 -1 -13 -7 -3 -7 -6 -8 -6 -2 -1 5 -14 9 -31 8 -16 -1 -30 3
-30 9 0 6 -3 8 -6 4 -3 -3 -20 7 -38 23 -17 17 -34 30 -38 30 -5 0 -8 5 -8 12
0 6 -7 19 -15 28 -15 16 -13 20 17 46 18 15 25 24 14 21 -16 -6 -17 -5 -6 8 7
8 17 12 24 8 6 -4 4 2 -4 12 -14 17 -14 18 8 6 20 -11 27 -10 43 5 18 16 18
18 3 36 -10 10 -13 18 -8 18 6 0 10 9 11 20 1 11 -1 19 -5 16 -4 -2 -21 25
-37 60 -17 35 -27 64 -21 64 5 0 0 8 -11 18 -11 9 -18 23 -15 31 3 10 -1 12
-17 8 -12 -3 -19 -1 -15 4 3 6 0 18 -8 27 -12 15 -11 16 4 4 12 -10 18 -10 24
-1 4 7 3 9 -4 5 -6 -3 -13 -2 -17 4 -7 11 -55 10 -55 -2 0 -4 -9 -6 -20 -5
-11 1 -20 6 -20 12 0 5 -5 3 -10 -5 -8 -13 -10 -13 -10 2 0 12 -5 15 -17 11
-11 -4 -14 -3 -9 5 5 9 -553 12 -2234 12 l-2240 0 0 -1862z m4722 1520 c-6 -6
-15 -8 -19 -4 -4 4 -1 11 7 16 19 12 27 3 12 -12z m368 -42 c0 -2 -8 -10 -17
-17 -16 -13 -17 -12 -4 4 13 16 21 21 21 13z m67 -32 c-3 -17 0 -21 11 -16 11
4 14 1 9 -10 -5 -14 -1 -15 23 -8 22 6 28 5 24 -5 -3 -8 -13 -11 -22 -8 -10 3
-7 -2 6 -12 13 -10 35 -17 49 -17 18 0 21 -3 12 -9 -12 -8 -12 -11 1 -18 8 -5
18 -7 23 -4 5 3 6 -9 4 -25 -4 -25 -2 -30 11 -24 12 4 11 -1 -6 -22 -12 -16
-19 -32 -17 -36 3 -5 1 -11 -4 -14 -16 -10 -23 14 -9 31 12 15 11 15 -9 3 -15
-10 -20 -21 -17 -39 1 -14 1 -20 -2 -14 -4 9 -11 10 -25 3 -23 -13 -25 -2 -3
14 13 10 13 12 -5 14 -44 4 -51 6 -51 14 0 4 -5 8 -11 8 -5 0 -7 -5 -3 -12 4
-7 3 -8 -5 -4 -6 4 -9 11 -6 16 3 4 -3 14 -12 21 -10 8 -14 9 -10 2 5 -8 1
-11 -12 -10 -11 0 -18 4 -15 8 2 4 -2 10 -8 12 -10 4 -9 8 2 16 12 9 11 11 -8
11 -16 0 -21 -4 -16 -12 4 -7 4 -10 0 -6 -4 3 -8 10 -8 15 1 4 -7 17 -16 28
-16 19 -16 19 2 5 18 -14 19 -13 13 3 -4 11 -4 24 0 30 9 14 10 19 12 47 0 11
6 20 12 20 5 0 7 -6 4 -12 -4 -7 0 -5 8 4 8 10 18 14 22 10 5 -4 6 0 3 9 -5
12 1 16 24 16 25 0 29 -4 25 -23z m2058 -114 c-3 -5 -12 -10 -18 -10 -7 0 -6
4 3 10 19 12 23 12 15 0z m-158 -6 c-3 -3 -12 -4 -19 -1 -8 3 -5 6 6 6 11 1
17 -2 13 -5z m218 -144 c3 -5 1 -10 -4 -10 -6 0 -11 5 -11 10 0 6 2 10 4 10 3
0 8 -4 11 -10z m227 -242 c-9 -9 -9 -15 1 -27 9 -11 9 -13 0 -8 -6 4 -14 4
-17 -1 -2 -4 9 -8 25 -7 16 0 29 3 29 7 0 5 10 7 23 7 16 -1 17 -3 5 -6 -10
-2 -15 -10 -11 -19 3 -8 -1 -14 -8 -14 -11 0 -11 -3 1 -10 8 -5 20 -10 25 -10
6 0 3 5 -5 10 -13 8 -12 10 3 10 21 0 22 -9 0 -39 -9 -14 -11 -21 -5 -17 7 4
12 2 12 -3 0 -6 -5 -11 -11 -11 -5 0 -7 -4 -4 -10 3 -5 1 -10 -6 -10 -7 0 -21
-7 -31 -17 -12 -10 -18 -12 -18 -4 0 7 -4 10 -9 6 -5 -3 -12 -1 -16 5 -4 6 -9
9 -13 7 -4 -2 -17 7 -29 20 -12 13 -17 23 -11 23 6 0 5 6 -3 17 -10 11 -10 14
-1 9 7 -4 12 -2 12 5 0 6 8 18 18 26 9 8 11 12 5 8 -7 -3 -13 -1 -13 5 0 6 10
15 23 20 12 5 18 9 13 9 -9 1 12 31 22 31 3 0 1 -5 -6 -12z m28 -13 c0 -8 -4
-15 -10 -15 -5 0 -7 7 -4 15 4 8 8 15 10 15 2 0 4 -7 4 -15z m-2548 -611 c28
-20 38 -34 38 -53 0 -14 9 -50 19 -79 11 -28 16 -52 13 -52 -4 0 1 -5 11 -11
9 -6 15 -15 11 -20 -3 -6 1 -18 9 -27 8 -9 18 -32 22 -50 4 -19 19 -42 35 -54
16 -12 27 -25 24 -30 -3 -4 -1 -8 3 -8 13 0 44 -58 48 -90 3 -24 -1 -33 -23
-45 -15 -8 -21 -14 -14 -15 7 0 10 -5 7 -10 -4 -6 -10 -8 -15 -5 -5 3 -8 -3
-7 -14 0 -11 5 -17 9 -15 4 3 13 -6 19 -20 17 -37 120 -69 136 -43 3 6 1 7 -5
3 -6 -3 -15 8 -22 28 -6 18 -19 41 -29 50 -18 16 -18 56 -1 56 5 0 12 10 15
21 6 17 9 18 16 8 6 -11 9 -10 14 4 11 26 77 43 114 28 35 -15 56 -59 47 -98
-3 -16 -8 -34 -10 -42 -6 -29 -69 -81 -89 -75 -15 5 -17 3 -11 -7 6 -11 5 -12
-7 -2 -13 10 -16 10 -16 -2 0 -8 7 -15 15 -15 9 0 12 -6 8 -16 -5 -12 -2 -15
11 -10 15 6 16 5 1 -11 -8 -10 -14 -23 -11 -29 2 -7 -7 -21 -21 -32 -14 -10
-23 -22 -19 -25 3 -3 -6 -9 -21 -13 -14 -3 -26 -11 -26 -16 0 -6 -6 -8 -13 -5
-10 4 -14 -4 -14 -24 0 -15 4 -26 9 -23 5 3 8 2 7 -3 -4 -25 3 -35 21 -30 10
3 19 2 18 -2 -2 -22 4 -41 12 -36 6 3 10 -3 10 -15 0 -26 -57 -63 -85 -55 -11
4 -33 8 -49 11 -39 5 -74 29 -88 59 -8 19 -7 28 8 47 19 23 35 29 87 29 15 0
25 4 22 10 -3 5 1 6 9 3 24 -9 13 47 -13 64 -11 8 -21 21 -21 30 0 8 -2 13 -5
10 -3 -3 -19 7 -36 23 -31 29 -86 46 -114 35 -8 -3 -15 -1 -15 5 0 5 -6 4 -14
-3 -8 -7 -12 -16 -9 -20 2 -4 -4 -5 -13 -1 -10 4 -15 2 -11 -4 6 -9 -6 -13
-46 -14 -9 0 -15 -4 -13 -8 3 -4 -4 -8 -15 -8 -11 -1 -17 2 -14 8 10 15 -2 10
-16 -8 -12 -15 -12 -16 1 -8 13 8 13 7 0 -9 -8 -11 -16 -14 -18 -7 -2 6 -8 11
-13 11 -6 0 -8 -4 -5 -9 8 -13 -4 -42 -15 -35 -5 3 -9 -2 -9 -11 0 -11 -7 -15
-22 -13 -18 2 -22 -1 -20 -16 2 -10 -1 -16 -6 -12 -5 3 -30 -1 -56 -9 -25 -8
-53 -12 -60 -9 -8 3 -44 -25 -89 -70 -41 -42 -81 -76 -88 -76 -8 0 -24 -7 -35
-15 -12 -8 -24 -12 -28 -10 -3 3 -4 2 -2 -1 2 -3 -12 -22 -32 -43 -53 -54
-103 -111 -98 -111 3 0 -6 -12 -19 -26 -14 -15 -25 -35 -25 -45 0 -10 -5 -21
-10 -24 -6 -4 -8 -11 -5 -16 4 -5 1 -9 -5 -9 -6 0 -9 -4 -5 -9 3 -5 -4 -12
-15 -16 -11 -3 -20 -12 -20 -19 0 -16 -45 -41 -58 -32 -12 7 -34 -18 -24 -29
4 -5 2 -5 -5 -2 -6 4 -13 1 -16 -5 -3 -10 -8 -10 -18 1 -8 8 -9 11 -2 7 6 -3
15 -1 18 5 11 16 -3 23 -19 10 -12 -10 -13 -19 -5 -39 6 -15 7 -23 3 -19 -4 4
-14 1 -23 -6 -14 -10 -14 -10 -4 3 8 10 9 21 3 30 -10 15 -10 13 -10 -37 0 -5
5 -9 10 -9 6 -1 13 -2 16 -3 4 0 0 -9 -7 -18 -11 -13 -11 -15 -1 -9 9 5 15 1
19 -13 5 -20 27 -29 36 -13 2 4 2 1 1 -5 -2 -7 1 -13 7 -13 6 0 13 9 16 20 3
11 9 18 13 15 4 -3 13 2 20 10 18 21 35 19 66 -10 16 -15 22 -25 13 -25 -8 0
-10 -3 -4 -8 14 -10 17 -32 9 -51 -17 -36 -12 -89 9 -112 12 -13 21 -26 21
-29 -3 -12 16 -50 26 -50 5 0 10 -7 10 -15 0 -7 6 -18 13 -22 6 -4 13 -15 13
-23 1 -8 5 -22 8 -31 4 -10 -6 -28 -28 -53 -20 -20 -38 -36 -41 -36 -12 2 -74
-24 -70 -29 2 -3 -8 -7 -21 -7 -14 -1 -35 -14 -47 -28 -13 -14 -28 -26 -35
-26 -7 0 -12 -5 -12 -11 0 -5 -4 -7 -10 -4 -5 3 -10 -2 -10 -12 0 -10 -4 -14
-8 -8 -10 14 -32 17 -32 4 0 -8 -4 -8 -15 1 -8 6 -20 9 -27 5 -7 -3 -5 0 4 7
14 10 14 13 2 22 -8 6 -15 25 -15 41 -1 17 -5 44 -10 60 -22 79 -14 206 11
190 6 -4 10 7 10 24 0 18 7 34 18 40 9 6 11 11 5 11 -7 0 -13 8 -13 18 0 9 -9
23 -21 30 -11 7 -18 19 -15 27 3 9 -1 12 -15 10 -18 -4 -19 -2 -7 12 10 13 10
15 0 9 -24 -14 -10 92 15 118 28 29 38 69 23 95 -6 12 -7 21 -2 21 5 0 9 7 9
15 0 11 -4 12 -13 4 -21 -17 -5 27 17 47 10 9 19 26 19 36 0 11 5 16 10 13 6
-3 10 -2 10 4 0 5 9 13 20 16 11 4 17 11 14 17 -5 7 -2 9 8 6 9 -4 28 5 46 22
19 17 33 24 36 16 2 -6 5 1 5 17 1 31 -12 36 -54 22 -16 -6 -17 -5 -5 4 20 14
10 14 -36 -2 -23 -8 -52 -11 -71 -7 -20 5 -30 4 -27 -2 3 -5 0 -8 -7 -7 -8 2
-30 -4 -50 -13 -58 -26 -73 -28 -91 -14 -22 16 -18 35 20 94 24 37 40 51 71
61 53 15 71 34 65 68 -3 15 -6 28 -7 28 -21 9 -86 69 -81 76 3 5 -2 12 -10 15
-12 5 -13 10 -5 25 5 10 6 19 1 19 -5 0 -9 7 -9 15 0 8 4 15 9 15 4 0 7 3 6 8
-5 19 17 50 59 82 26 19 63 52 82 74 77 82 103 106 119 106 24 0 73 32 113 72
61 62 80 70 166 67 127 -3 128 -3 183 51 44 43 56 64 51 93 0 4 4 7 9 7 6 0
10 6 10 13 0 15 60 80 123 132 117 96 136 102 199 59z m-1389 -794 c-1 -18 -6
-35 -11 -39 -5 -3 -13 -21 -17 -38 -3 -18 -11 -33 -16 -33 -5 0 -9 -6 -9 -13
0 -8 -11 -20 -25 -27 -13 -7 -22 -16 -20 -20 7 -11 -59 -27 -93 -22 -18 2 -35
9 -39 15 -4 6 -1 7 8 3 8 -4 4 1 -8 12 -21 19 -23 35 -8 81 3 10 22 27 42 37
20 10 59 41 86 67 l49 48 32 -19 c25 -15 31 -24 29 -52z m203 18 c10 -12 14
-18 7 -15 -6 4 -14 3 -17 -2 -8 -12 -30 -8 -50 9 -14 10 -14 15 -4 21 22 14
44 10 64 -13z m-516 -258 c-5 -9 -6 -21 -2 -25 4 -5 1 -5 -6 -1 -7 4 -10 12
-7 17 4 5 -1 12 -10 15 -13 5 -14 9 -4 14 21 13 40 0 29 -20z m323 -22 c-2 -5
0 -8 5 -8 16 0 20 -61 5 -76 -8 -8 -17 -14 -21 -15 -4 0 -14 -2 -23 -4 -21 -4
-40 8 -42 26 -2 8 -7 20 -11 28 -12 19 34 56 68 56 13 0 22 -3 19 -7z m921
-154 c9 -3 16 -13 16 -21 0 -9 -5 -11 -12 -7 -10 6 -10 4 -2 -7 9 -11 6 -19
-11 -36 -19 -18 -24 -19 -29 -7 -4 11 -13 13 -27 9 -16 -5 -20 -3 -17 6 3 8
14 13 24 11 18 -3 18 -3 -1 11 -35 27 12 59 59 41z m-4207 -102 c35 -36 57
-65 60 -80 5 -23 -96 -33 -123 -11 -6 5 -13 7 -16 4 -2 -2 -10 11 -17 31 -11
31 -11 38 4 54 9 10 27 21 39 23 11 2 22 5 23 6 1 0 15 -12 30 -27z m191 -141
c17 -10 15 -21 -5 -44 -15 -16 -17 -16 -35 0 -17 15 -17 17 -2 35 19 20 23 21
42 9z m-322 -191 c22 19 25 -29 2 -52 -18 -18 -21 -19 -38 -3 -18 17 -17 45 2
45 5 0 6 6 2 13 -5 9 -4 9 6 0 9 -9 17 -9 26 -3z m5574 -564 c0 -16 -7 -27
-21 -31 -27 -9 -31 -3 -23 29 8 35 44 36 44 2z"/>
<path d="M4363 5583 c-25 -5 -73 -57 -73 -79 0 -23 -1 -29 -9 -39 -12 -15 -12
-85 -1 -85 6 0 10 -6 10 -14 0 -19 30 -28 101 -31 51 -3 60 0 84 25 25 27 27
33 22 91 -4 53 -9 66 -38 94 -36 35 -60 45 -96 38z"/>
<path d="M3987 4744 c-3 -3 0 -15 6 -26 9 -16 9 -22 0 -25 -17 -6 -17 -23 0
-23 15 0 21 46 7 55 -6 4 -8 11 -5 16 7 10 2 12 -8 3z"/>
<path d="M7080 7531 c25 -7 25 -7 3 -13 -17 -5 -23 -13 -23 -35 0 -22 2 -25
10 -13 8 12 10 12 10 -5 0 -17 2 -17 10 -5 8 12 10 11 10 -6 0 -12 7 -25 16
-28 15 -6 15 -4 3 11 -12 15 -12 16 4 10 9 -3 17 -2 17 4 0 6 5 7 10 4 6 -3
10 1 10 9 0 9 -4 16 -10 16 -5 0 -10 5 -10 11 0 18 -41 49 -64 48 -18 -1 -18
-2 4 -8z"/>
<path d="M7552 6810 c-13 -21 -3 -33 17 -21 9 6 10 14 4 25 -8 14 -10 13 -21
-4z"/>
<path d="M0 3620 l0 -99 56 -27 c31 -15 71 -40 90 -56 19 -17 34 -27 34 -23 0
4 7 2 15 -5 10 -9 15 -9 15 -1 0 6 6 11 14 11 15 0 28 27 32 65 2 22 -22 65
-43 78 -7 5 -11 12 -8 17 3 4 -15 20 -39 34 -24 14 -56 40 -70 57 -14 17 -26
28 -26 24 0 -4 -7 1 -16 9 -8 9 -24 16 -35 16 -17 0 -19 -8 -19 -100z"/>
<path d="M5966 3185 c-3 -8 -14 -15 -25 -15 -32 0 -51 -11 -51 -29 0 -27 20
-41 45 -31 13 5 26 6 30 2 10 -11 25 21 25 56 0 33 -14 43 -24 17z"/>
<path d="M7300 2949 c0 -5 5 -7 10 -4 6 3 10 8 10 11 0 2 -4 4 -10 4 -5 0 -10
-5 -10 -11z"/>
<path d="M7098 2888 c-37 -39 -43 -51 -34 -61 7 -7 15 -34 18 -61 4 -34 14
-56 32 -74 14 -14 28 -23 31 -20 3 3 4 63 3 134 l-3 130 -47 -48z"/>
<path d="M6918 2745 c-16 -14 -28 -34 -28 -48 0 -19 6 -26 28 -30 15 -3 28 -4
30 -2 2 1 2 25 0 53 l-3 50 -27 -23z"/>
<path d="M5125 2720 c-3 -5 -2 -10 4 -10 5 0 13 5 16 10 3 6 2 10 -4 10 -5 0
-13 -4 -16 -10z"/>
<path d="M6215 2718 c-13 -38 -10 -53 10 -50 42 8 61 44 29 56 -24 9 -34 7
-39 -6z"/>
<path d="M6655 2645 c-16 -19 -39 -35 -51 -35 -11 0 -29 -9 -39 -20 -13 -14
-31 -20 -59 -20 -29 0 -47 -6 -59 -20 -12 -14 -29 -20 -60 -20 -34 0 -49 -6
-69 -27 -14 -16 -28 -40 -32 -55 -6 -27 -5 -27 26 -21 18 3 37 12 41 20 4 7
16 13 26 13 10 0 30 9 44 20 44 35 57 27 57 -35 0 -54 -9 -75 -52 -114 -22
-19 -23 -60 -3 -67 10 -4 15 -20 15 -46 0 -33 3 -39 16 -34 9 3 24 6 35 6 13
0 19 7 19 24 0 12 10 34 23 48 13 13 34 39 48 57 36 46 59 34 59 -29 0 -53 14
-72 34 -45 11 15 35 17 191 19 123 1 179 -2 182 -10 6 -17 -66 -84 -91 -84
-12 0 -30 -9 -40 -21 -10 -13 -25 -19 -36 -16 -21 5 -54 -35 -47 -56 2 -7 -3
-18 -12 -25 -14 -11 -14 -11 3 -5 19 6 19 6 0 -19 -10 -14 -23 -23 -28 -20 -5
3 -6 1 -3 -5 4 -5 -2 -19 -13 -30 -14 -16 -16 -23 -7 -32 9 -10 9 -12 -2 -9
-8 2 -17 -6 -19 -17 -2 -11 -10 -25 -18 -31 -8 -7 -13 -16 -12 -22 2 -6 -6
-18 -17 -27 -15 -13 -16 -15 -3 -12 11 4 15 0 14 -11 -4 -23 -19 -25 -61 -8
-21 9 -48 16 -62 16 -13 0 -37 7 -53 15 -25 13 -30 13 -30 2 0 -14 -37 -50
-80 -78 -14 -9 -41 -31 -60 -48 -19 -17 -39 -31 -45 -32 -5 0 -1 -4 10 -9 29
-12 282 -12 290 0 12 19 38 11 32 -10 -3 -13 0 -20 10 -20 8 0 11 -5 8 -10 -4
-6 -10 -8 -15 -5 -5 3 -11 1 -15 -5 -4 -6 -10 -8 -14 -6 -4 3 -14 -6 -21 -19
-7 -14 -21 -27 -32 -31 -11 -3 -18 -15 -18 -32 0 -19 -3 -23 -9 -13 -6 9 -20
12 -40 9 -17 -2 -31 -1 -31 4 0 4 -7 8 -16 8 -8 0 -12 -4 -9 -10 3 -5 -1 -10
-10 -10 -9 0 -27 -11 -40 -24 -18 -18 -26 -21 -36 -12 -9 8 -10 7 -5 -4 4 -8
-1 -6 -11 5 -23 26 -78 25 -99 -1 -9 -10 -13 -14 -10 -8 3 6 -5 16 -18 22 -12
5 -30 26 -39 45 -9 19 -23 40 -32 47 -8 7 -15 18 -15 25 0 7 -7 18 -15 25 -13
11 -15 8 -16 -16 -1 -16 -1 -32 0 -36 0 -5 -4 -7 -10 -5 -6 1 -14 -4 -17 -12
-3 -8 0 -11 7 -7 6 4 11 2 11 -4 0 -6 -7 -13 -15 -16 -21 -8 -19 -24 3 -24 14
0 14 -2 3 -9 -9 -6 -11 -15 -6 -27 4 -11 8 -28 9 -38 1 -11 7 -21 15 -24 10
-3 11 2 6 18 -5 15 -3 20 3 16 6 -3 13 -2 17 4 3 5 10 10 15 10 12 0 7 -49 -5
-50 -30 -3 -45 -35 -45 -97 0 -35 -4 -63 -10 -63 -5 0 -10 -10 -10 -22 0 -20
-5 -18 -43 20 -23 23 -47 42 -52 42 -4 0 -16 7 -26 15 -21 20 -70 10 -76 -16
-3 -11 -11 -19 -19 -19 -7 0 -36 -14 -65 -30 -28 -17 -54 -29 -56 -26 -3 2
-33 -15 -68 -39 -40 -27 -71 -42 -83 -39 -10 3 -24 -2 -31 -10 -8 -9 -22 -16
-32 -16 -23 0 -23 -4 -4 -34 19 -28 16 -77 -5 -84 -8 -2 -36 -25 -62 -50 l-48
-46 -35 34 c-33 32 -46 72 -26 84 8 5 23 46 16 46 -2 0 -13 -16 -24 -36 l-21
-36 -88 4 c-48 2 -93 8 -100 12 -6 4 -29 3 -49 -3 -21 -5 -65 -12 -97 -15 -33
-3 -62 -10 -65 -14 -3 -5 -14 -11 -23 -15 -10 -3 -18 -13 -18 -22 0 -10 -10
-15 -34 -15 -31 0 -34 -2 -40 -41 -4 -22 -4 -44 -1 -49 3 -4 -3 -6 -14 -3 -20
5 -42 -18 -23 -25 29 -9 -3 -20 -44 -15 -33 4 -50 1 -63 -11 -10 -9 -20 -14
-23 -11 -3 3 -11 -1 -18 -10 -7 -8 -20 -15 -29 -15 -14 0 -14 -2 -1 -10 12 -8
11 -10 -7 -10 -13 0 -24 -4 -24 -10 -3 -20 -4 -25 -12 -37 -9 -15 15 -29 64
-38 20 -4 49 -17 65 -31 l29 -24 -22 -19 c-13 -11 -23 -24 -23 -29 0 -13 -45
-42 -65 -42 -8 0 -15 -7 -15 -17 0 -24 -75 -93 -101 -93 -22 0 -79 -51 -79
-70 0 -5 -6 -10 -14 -10 -8 0 -22 -10 -30 -22 -9 -12 -16 -19 -16 -14 0 4 -12
-6 -27 -23 -15 -17 -32 -31 -38 -31 -30 -1 -86 -77 -89 -120 -1 -8 -11 -16
-23 -18 -18 -3 -36 -35 -32 -58 0 -4 -5 -11 -13 -15 -7 -5 83 -9 206 -9 218 0
219 0 201 20 -10 11 -32 25 -50 31 -38 14 -38 12 40 128 46 68 67 104 99 171
9 19 20 25 50 28 37 2 38 2 34 -27 -2 -17 -1 -28 4 -25 4 3 3 -7 -2 -22 -6
-15 -8 -29 -6 -32 3 -2 -1 -11 -9 -19 -8 -8 -15 -27 -15 -43 0 -16 -4 -31 -9
-35 -5 -3 -9 -18 -9 -34 1 -15 -2 -33 -6 -40 -4 -6 -1 -11 6 -11 9 0 10 -2 2
-8 -12 -7 -17 -31 -15 -64 2 -30 49 -22 78 12 14 17 35 35 47 41 12 6 5 -4
-16 -25 -21 -19 -38 -37 -38 -40 0 -4 57 -6 128 -6 121 1 126 1 107 18 -12 9
-24 25 -28 34 -4 11 -13 16 -24 12 -16 -5 -16 -4 -3 8 8 7 15 19 15 26 0 6 4
11 8 10 5 -2 13 5 18 14 6 10 19 18 29 18 11 0 20 5 20 10 0 14 -12 13 -66
-10 -26 -11 -52 -19 -57 -17 -6 2 16 13 48 25 32 13 65 30 72 40 10 11 12 12
8 2 -4 -9 -1 -8 8 3 14 17 16 17 25 1 9 -16 11 -16 32 4 13 12 26 19 30 17 4
-3 16 6 26 20 10 13 22 21 27 18 5 -3 23 10 41 28 18 19 40 41 51 49 17 14 18
13 12 -5 -7 -20 -7 -20 8 -1 22 29 19 36 -17 36 -20 0 -28 3 -21 8 7 5 14 19
15 33 2 20 28 63 28 45 0 -2 31 26 69 63 66 64 88 78 204 131 29 13 46 27 44
35 -3 6 3 19 14 28 13 12 19 13 19 4 0 -8 4 -7 10 3 5 8 10 11 10 5 0 -5 4 -4
8 2 4 7 18 14 30 16 12 2 25 6 28 10 4 4 13 2 20 -4 17 -14 45 -4 42 13 -2 7
5 12 14 12 10 -1 15 3 12 8 -4 6 -1 9 7 6 7 -2 28 11 46 30 18 19 33 30 33 23
0 -6 5 -11 11 -11 5 0 8 4 5 9 -3 5 4 11 15 14 13 4 18 10 13 18 -4 8 -3 10 4
5 7 -4 12 -2 12 3 0 6 5 11 11 11 5 0 7 -5 3 -12 -4 -7 -3 -8 4 -4 22 14 13
36 -15 37 l-28 1 25 7 c33 10 60 -13 60 -51 0 -53 15 -63 83 -60 34 2 67 4 72
6 6 2 15 4 20 5 6 2 18 9 27 18 9 8 22 12 27 8 6 -3 11 0 11 9 0 8 8 29 17 48
30 60 31 65 21 79 -8 11 -9 11 -4 -3 3 -10 1 -20 -4 -23 -6 -4 -10 -1 -10 5 0
6 -5 8 -11 4 -8 -5 -8 -1 0 14 6 12 16 24 21 27 6 3 10 16 10 29 0 24 28 56
48 56 7 0 12 5 12 10 0 19 39 10 45 -10 3 -11 14 -20 23 -20 14 -1 14 -2 -3
-12 -31 -17 -75 -60 -75 -75 0 -7 -6 -10 -15 -7 -9 4 -15 0 -15 -8 0 -7 -9
-31 -20 -53 -23 -44 -26 -70 -8 -59 7 4 23 9 36 10 13 2 30 8 38 15 17 14 19
-2 2 -21 -11 -12 -10 -12 4 -1 9 7 21 10 26 7 5 -3 22 8 38 25 26 27 28 36 28
104 0 60 3 74 14 70 7 -3 18 -5 23 -5 5 0 9 -5 9 -11 0 -5 -4 -7 -10 -4 -14 8
-23 -39 -16 -79 l7 -35 36 15 c32 14 35 14 30 0 -4 -10 -1 -13 8 -9 8 3 13 9
10 13 -3 5 -1 11 4 15 6 3 7 13 4 22 -5 12 -2 15 14 11 12 -3 20 0 20 8 0 7
-4 11 -9 8 -4 -3 -8 0 -8 5 0 14 17 14 25 1 3 -6 14 -9 23 -9 15 1 15 2 -1 6
-14 4 -16 8 -6 19 6 8 18 14 25 14 11 0 14 22 14 104 0 59 -4 108 -10 111 -5
3 -10 21 -10 40 0 19 -4 37 -10 40 -5 3 -10 33 -10 67 0 58 1 60 23 53 22 -7
87 -19 162 -30 22 -4 45 -8 50 -9 6 -2 15 -3 20 -2 10 1 11 5 14 34 0 6 8 12
16 12 8 0 15 5 15 11 0 6 -7 9 -15 5 -9 -3 -15 0 -15 10 0 9 5 12 13 8 9 -6 9
-5 -1 8 -10 12 -9 18 3 28 8 7 12 16 9 21 -10 17 7 51 22 45 9 -3 12 -1 9 4
-3 6 1 10 9 10 8 0 18 -9 21 -21 5 -16 10 -18 21 -8 11 9 14 43 14 153 0 108
3 147 14 162 20 27 34 9 42 -51 4 -28 12 -55 20 -61 7 -6 14 -35 16 -65 2 -40
7 -54 18 -54 8 0 16 9 19 20 2 11 10 24 18 31 23 16 21 203 -1 220 -9 6 -16
21 -16 34 0 12 -12 34 -26 47 l-26 24 6 140 c5 131 4 140 -14 152 -15 9 -20
23 -20 59 0 57 -13 66 -87 62 -39 -2 -57 2 -74 17 -12 10 -30 19 -40 19 -17 0
-44 19 -100 73 -23 23 -29 37 -29 73 0 54 -14 56 -55 9z m219 -620 c3 -8 1
-15 -4 -15 -6 0 -10 7 -10 15 0 8 2 15 4 15 2 0 6 -7 10 -15z m-48 -204 c-9
-10 -16 -29 -16 -43 0 -14 -7 -31 -15 -38 -12 -10 -15 -10 -15 4 0 9 -8 16
-19 16 -11 0 -23 5 -27 11 -8 14 45 69 67 69 10 0 21 5 25 12 6 9 9 9 12 -1 2
-6 -3 -20 -12 -30z m-666 -528 c0 -98 -15 -153 -42 -153 -10 0 -23 -9 -30 -20
-22 -35 -30 -21 -10 18 23 44 42 101 42 125 0 9 5 17 10 17 6 0 10 25 10 56 0
34 4 53 10 49 6 -3 10 -45 10 -92z m-219 -121 c-22 -44 -46 -84 -53 -88 -10
-6 -11 -4 0 7 6 7 12 30 12 51 0 42 24 88 46 88 8 0 17 7 21 15 3 9 7 14 10
11 2 -2 -14 -40 -36 -84z m599 -84 c0 -7 3 -24 6 -38 5 -17 4 -22 -4 -15 -16
15 -26 65 -13 65 6 0 11 -6 11 -12z m-4 -98 c-1 -39 -16 -39 -16 0 0 17 4 30
9 30 4 0 8 -13 7 -30z m-306 -67 c0 -22 -17 -49 -25 -41 -8 8 5 58 16 58 5 0
9 -8 9 -17z m-1230 -39 c0 -7 -40 -44 -47 -44 -2 0 4 11 14 25 17 23 33 32 33
19z m737 -140 c-3 -3 -12 -4 -19 -1 -8 3 -5 6 6 6 11 1 17 -2 13 -5z m-1137
-392 c0 -5 -19 -16 -42 -26 -22 -11 -58 -34 -80 -54 -38 -35 -49 -31 -25 11
25 45 39 57 63 51 13 -3 32 1 46 10 25 18 38 20 38 8z m460 -122 c0 -5 -2 -10
-4 -10 -3 0 -8 5 -11 10 -3 6 -1 10 4 10 6 0 11 -4 11 -10z m-225 -120 c-3 -5
-11 -10 -16 -10 -6 0 -7 5 -4 10 3 6 11 10 16 10 6 0 7 -4 4 -10z"/>
<path d="M6960 2651 c0 -5 5 -13 10 -16 6 -3 10 -2 10 4 0 5 -4 13 -10 16 -5
3 -10 2 -10 -4z"/>
<path d="M5667 2615 c-12 -17 -17 -39 -15 -68 3 -38 5 -42 28 -40 73 8 91 31
50 68 -11 10 -18 20 -15 23 6 6 -14 42 -23 42 -4 0 -15 -12 -25 -25z"/>
<path d="M6130 2473 c0 -4 5 -15 10 -23 8 -13 10 -13 10 2 0 9 -4 20 -10 23
-5 3 -10 3 -10 -2z"/>
<path d="M2812 2293 c4 -19 38 -31 38 -14 0 6 -6 10 -12 9 -7 -2 -12 3 -10 10
1 6 -3 12 -9 12 -6 0 -9 -8 -7 -17z"/>
<path d="M3517 2142 c-20 -21 -37 -48 -37 -60 0 -12 -4 -22 -9 -22 -5 0 -15
-16 -21 -36 -10 -31 -10 -39 4 -52 9 -9 16 -12 16 -6 0 6 18 17 41 24 l41 14
-5 70 c-3 39 -1 79 4 88 14 26 7 22 -34 -20z"/>
<path d="M5125 2150 c-10 -11 -27 -20 -38 -20 -23 0 -154 -131 -153 -152 1 -4
-14 -23 -31 -42 -18 -19 -33 -40 -33 -46 0 -10 -4 -10 -17 0 -10 7 -5 0 11
-14 24 -23 28 -33 23 -66 -8 -60 14 -70 47 -22 14 21 26 47 26 59 0 11 7 26
16 34 10 8 13 21 9 36 -3 15 -1 23 8 23 17 0 117 105 117 123 0 8 8 25 18 38
21 26 34 69 23 69 -5 0 -16 -9 -26 -20z"/>
<path d="M5318 2066 c-16 -19 -28 -44 -28 -55 0 -11 -9 -25 -20 -31 -11 -6
-20 -15 -20 -21 0 -6 4 -8 9 -4 5 3 12 1 16 -5 3 -5 13 -10 22 -10 9 0 22 -8
29 -17 7 -10 16 -14 21 -10 8 9 12 187 3 187 -3 0 -17 -16 -32 -34z"/>
<path d="M4849 1953 c-13 -16 -12 -17 4 -4 16 13 21 21 13 21 -2 0 -10 -8 -17
-17z"/>
<path d="M4795 1920 c3 -5 8 -10 11 -10 2 0 4 5 4 10 0 6 -5 10 -11 10 -5 0
-7 -4 -4 -10z"/>
<path d="M7388 1882 c7 -5 10 -16 7 -24 -4 -9 0 -18 10 -22 9 -3 18 0 21 9 10
24 -4 45 -28 45 -16 0 -19 -3 -10 -8z"/>
<path d="M7610 1871 c-7 -13 -23 -21 -48 -23 -34 -3 -37 -5 -40 -38 -2 -19
-10 -38 -17 -43 -14 -8 -32 -93 -21 -104 3 -3 15 6 27 20 11 15 30 27 41 27
11 0 39 20 64 45 24 25 48 45 54 45 17 0 12 77 -6 84 -27 10 -43 7 -54 -13z"/>
<path d="M5457 1773 c-4 -3 -7 -19 -7 -34 0 -30 28 -43 68 -32 21 5 32 33 13
33 -5 0 -11 9 -14 20 -5 20 -45 28 -60 13z"/>
<path d="M7245 1698 c4 -23 2 -26 -12 -21 -16 6 -16 4 1 -16 15 -16 22 -19 29
-9 6 9 7 7 4 -8 -2 -12 2 -32 9 -45 l13 -24 1 26 c0 14 5 30 11 36 6 6 9 19 6
29 -4 16 -5 15 -6 -3 0 -13 -5 -23 -11 -23 -5 0 -8 13 -6 30 2 16 -1 27 -5 24
-5 -3 -9 0 -9 6 0 6 -4 9 -9 6 -5 -4 -12 0 -15 6 -3 7 -4 1 -1 -14z"/>
<path d="M1640 1661 c0 -6 5 -13 10 -16 6 -3 10 1 10 9 0 9 -4 16 -10 16 -5 0
-10 -4 -10 -9z"/>
<path d="M1728 1633 c6 -2 18 -2 25 0 6 3 1 5 -13 5 -14 0 -19 -2 -12 -5z"/>
<path d="M1581 1495 c2 -12 -10 -33 -31 -54 -24 -24 -31 -36 -21 -39 7 -2 17
2 22 9 6 9 9 10 9 2 0 -6 -4 -15 -10 -18 -15 -9 -12 -25 4 -25 9 0 13 -9 11
-25 -1 -14 1 -25 5 -25 4 0 10 30 14 67 4 36 13 71 20 77 12 9 11 15 -6 31
l-20 20 3 -20z"/>
<path d="M1666 1453 c-3 -4 -6 -19 -6 -35 0 -24 3 -28 18 -24 20 7 76 -48 87
-84 4 -11 14 -27 23 -36 9 -10 17 -36 19 -63 1 -25 2 -49 2 -52 1 -11 32 -20
43 -13 6 4 6 9 2 13 -5 3 -15 16 -22 29 -20 37 -2 49 70 47 35 -1 69 2 76 8
16 12 16 37 -1 37 -7 0 -17 8 -24 19 -8 13 -29 21 -66 25 -43 6 -56 12 -60 27
-3 10 -13 19 -22 19 -23 0 -104 52 -105 66 0 14 -25 25 -34 17z"/>
<path d="M5818 1448 c-2 -6 -11 -13 -19 -14 -7 -2 -27 -7 -43 -10 -16 -4 -43
-21 -60 -38 -17 -17 -33 -31 -37 -31 -4 0 -11 -4 -16 -9 -5 -5 -3 -6 5 -2 13
8 17 -10 4 -18 -5 -3 -9 -23 -10 -46 -2 -39 -1 -40 32 -40 18 0 39 7 46 15 7
8 16 13 20 10 10 -6 90 69 90 84 0 7 4 9 10 6 5 -3 7 0 4 8 -3 8 0 18 5 22 6
3 9 10 6 15 -3 5 4 14 16 20 20 11 20 12 2 25 -22 18 -50 19 -55 3z"/>
<path d="M7313 1453 c-15 -3 -23 -12 -23 -24 0 -31 -19 -59 -35 -53 -26 10
-16 -16 10 -28 14 -6 25 -18 25 -25 0 -10 10 -13 33 -11 l32 3 0 69 c0 71 -3
76 -42 69z"/>
<path d="M7 1294 c-11 -11 -8 -64 3 -64 11 0 17 12 22 44 3 19 -13 32 -25 20z"/>
<path d="M5606 1281 c-4 -5 -2 -12 3 -15 5 -4 12 -2 15 3 4 5 2 12 -3 15 -5 4
-12 2 -15 -3z"/>
<path d="M1505 1120 c-3 -5 -1 -10 4 -10 6 0 11 5 11 10 0 6 -2 10 -4 10 -3 0
-8 -4 -11 -10z"/>
<path d="M2477 1102 c-19 -21 -25 -156 -7 -167 6 -3 10 -18 10 -33 0 -15 9
-35 20 -45 21 -18 27 -61 10 -72 -24 -15 -6 -25 43 -25 39 0 59 5 74 19 12 11
24 17 29 13 4 -4 4 -1 0 6 -4 6 -4 17 0 24 4 7 8 21 9 32 3 29 15 88 20 96 8
13 -53 89 -90 112 -19 13 -35 31 -35 41 0 24 -61 23 -83 -1z"/>
<path d="M7319 1086 c-2 -2 -26 -7 -54 -10 -109 -12 -145 -19 -145 -26 0 -8
-87 -22 -148 -25 -19 -1 -37 -7 -41 -14 -6 -10 -10 -8 -15 5 -6 16 -10 15 -31
-11 -18 -21 -25 -24 -25 -12 0 10 -4 17 -10 17 -5 0 -8 -6 -6 -12 1 -7 1 -10
-1 -5 -3 4 -9 5 -14 2 -5 -4 -6 2 -3 12 5 14 4 15 -4 4 -5 -7 -15 -10 -21 -7
-15 10 -14 -37 2 -53 6 -7 -4 -4 -23 8 -32 19 -35 20 -42 3 -4 -9 -6 1 -3 23
3 35 2 37 -7 18 -6 -13 -15 -23 -20 -23 -5 0 -6 5 -2 11 4 7 1 10 -7 7 -8 -3
-13 -16 -11 -31 2 -24 1 -25 -22 -14 -13 7 -20 15 -14 18 6 4 4 8 -4 11 -9 4
-14 -2 -16 -17 -1 -18 3 -22 17 -18 10 3 22 -1 26 -7 6 -9 13 -6 27 11 l18 24
-10 -28 c-14 -39 -13 -44 5 -21 8 11 15 14 15 7 0 -7 5 -13 11 -13 5 0 8 4 5
8 -2 4 4 8 15 8 10 0 19 -6 19 -13 0 -7 7 -10 16 -6 12 4 15 2 12 -8 -6 -17
-29 -19 -41 -4 -5 6 -7 4 -4 -5 2 -8 15 -17 28 -20 26 -5 37 -27 14 -27 -8 0
-12 4 -9 9 3 4 0 8 -5 8 -6 0 -11 -7 -11 -15 0 -8 5 -15 11 -15 5 0 7 -4 4
-10 -11 -18 -25 -11 -26 13 -1 17 -2 18 -6 4 -3 -10 1 -25 9 -34 11 -15 11
-16 -5 -10 -11 4 -20 1 -24 -8 -4 -12 -8 -13 -19 -4 -12 9 -13 9 -8 -4 3 -8 1
-24 -5 -35 -8 -16 -7 -19 7 -18 9 0 18 -3 19 -9 1 -5 -7 -9 -17 -7 -20 3 -22
0 -23 -35 -1 -10 -6 -21 -12 -25 -6 -5 -3 -8 6 -8 22 0 32 -37 12 -44 -8 -3
-12 -2 -9 3 3 4 -6 6 -19 3 -14 -2 -25 -10 -25 -18 0 -8 -6 -11 -15 -8 -10 4
-15 0 -15 -10 0 -14 4 -15 21 -5 16 8 20 8 17 -1 -2 -6 -6 -10 -8 -9 -3 1 -15
-3 -27 -10 -20 -10 -23 -9 -23 9 0 13 -7 20 -20 20 -19 0 -23 8 -21 40 0 9 -2
10 -5 3 -3 -7 -12 -9 -20 -6 -8 3 -14 0 -14 -6 0 -6 -6 -11 -14 -11 -8 0 -24
-9 -37 -20 l-24 -19 27 -1 c14 0 28 -5 30 -10 2 -6 26 -12 53 -15 68 -5 86 -9
111 -23 12 -6 24 -8 28 -5 3 3 6 -1 6 -10 0 -10 5 -17 10 -17 6 0 10 5 10 12
0 6 2 9 5 6 3 -3 1 -17 -4 -32 -7 -18 -7 -26 0 -26 6 0 8 -4 4 -9 -3 -5 0 -13
6 -16 7 -5 4 -12 -9 -21 -23 -16 -34 -51 -20 -61 7 -3 8 -1 4 5 -4 7 1 10 14
9 22 -1 27 -13 8 -19 -9 -3 -9 -6 0 -12 7 -4 12 -2 12 4 0 6 4 9 9 6 5 -3 9 0
8 7 -1 41 2 45 27 34 13 -7 22 -15 19 -20 -2 -4 1 -14 7 -22 10 -12 10 -15 0
-15 -8 0 -10 -3 -7 -7 4 -3 18 4 32 17 23 22 30 20 25 -5 -1 -5 2 -6 7 -2 4 5
8 14 8 20 1 7 6 11 13 9 7 -1 12 2 12 8 0 18 19 10 24 -10 3 -11 8 -29 11 -39
4 -14 0 -21 -15 -26 -12 -4 -17 -11 -13 -18 3 -7 -3 -4 -14 6 -11 10 -27 17
-34 15 -20 -4 -28 -31 -15 -47 7 -10 7 -13 0 -8 -6 3 -18 -3 -27 -14 -19 -22
-23 -39 -5 -21 15 15 42 16 33 1 -4 -6 -9 -8 -12 -5 -4 3 -14 -4 -24 -15 l-17
-20 -16 23 c-9 12 -16 17 -16 10 0 -19 4 -27 13 -25 4 2 7 -2 7 -7 0 -13 -17
-13 -25 0 -4 6 -10 8 -14 6 -4 -3 -5 8 -3 25 3 18 0 29 -7 29 -7 0 -9 -4 -6
-10 3 -5 -1 -10 -10 -10 -9 0 -16 7 -14 17 3 39 0 45 -17 28 -13 -13 -19 -14
-25 -4 -4 7 -5 17 -3 21 3 4 -1 5 -9 2 -8 -3 -18 0 -22 6 -4 7 2 14 14 17 11
3 18 9 15 15 -3 5 1 20 10 33 20 30 21 46 2 39 -7 -3 -16 2 -20 11 -3 9 -2 14
3 11 5 -3 11 3 14 14 3 11 10 20 16 20 6 0 8 -6 5 -13 -3 -8 1 -14 9 -14 18 0
10 34 -10 41 -8 3 -36 -1 -63 -10 -38 -12 -47 -20 -43 -32 5 -14 3 -15 -8 -4
-15 14 -49 16 -49 3 0 -5 -12 -17 -27 -26 -28 -18 -28 -18 -10 2 25 28 22 33
-23 33 -38 0 -40 -2 -40 -30 0 -25 4 -30 25 -30 14 0 25 -5 25 -10 0 -6 19
-19 43 -29 23 -11 65 -43 92 -72 81 -87 96 -128 48 -131 -42 -2 -47 -3 -61
-12 -8 -5 -18 -4 -25 3 -6 6 -28 11 -49 11 -21 0 -38 5 -38 10 0 6 -9 10 -21
10 -11 0 -32 9 -46 20 -14 11 -33 20 -43 20 -9 0 -25 9 -35 20 -12 13 -31 20
-57 20 l-38 0 0 -69 c0 -49 4 -72 15 -81 9 -7 13 -21 10 -31 -6 -18 17 -19
704 -19 l711 0 0 530 0 530 -39 0 c-21 0 -54 -7 -74 -15 -19 -8 -36 -13 -38
-11 -2 2 -20 6 -40 9 -19 2 -45 10 -57 16 -12 6 -22 9 -22 5 0 -3 -7 0 -17 7
-9 8 -18 13 -20 12 -1 -2 -4 -3 -5 -2 -17 5 -46 8 -49 5z m-389 -117 c0 -5 -6
-6 -14 -3 -8 3 -24 -5 -35 -17 l-21 -23 10 30 c9 26 15 30 35 26 14 -2 25 -8
25 -13z m63 -37 c27 -28 34 -41 27 -52 -8 -13 -10 -12 -10 4 0 10 -15 33 -34
52 -19 19 -31 34 -27 34 4 0 23 -17 44 -38z m55 -73 c-6 -16 -12 -28 -14 -26
-5 5 13 57 20 57 3 0 0 -14 -6 -31z m-158 -43 c0 -36 -3 -67 -7 -69 -5 -3 -8
26 -8 64 0 38 3 69 8 69 4 0 7 -29 7 -64z m287 -18 c-3 -8 -6 -5 -6 6 -1 11 2
17 5 13 3 -3 4 -12 1 -19z m181 7 c-8 -9 -98 -11 -98 -3 0 4 23 8 52 8 28 0
49 -2 46 -5z m-598 -40 c0 -2 -9 -9 -20 -15 -12 -6 -20 -7 -20 -1 0 5 8 12 18
14 9 3 18 5 20 6 1 0 2 -1 2 -4z m37 -1 c-3 -3 -12 -4 -19 -1 -8 3 -5 6 6 6
11 1 17 -2 13 -5z m43 -8 c-7 -7 -13 -7 -20 0 -6 6 -3 10 10 10 13 0 16 -4 10
-10z m-63 -28 c-3 -8 -6 -5 -6 6 -1 11 2 17 5 13 3 -3 4 -12 1 -19z m780 -10
c-3 -8 -6 -5 -6 6 -1 11 2 17 5 13 3 -3 4 -12 1 -19z m108 -18 c3 -5 2 -10 -4
-10 -5 0 -13 5 -16 10 -3 6 -2 10 4 10 5 0 13 -4 16 -10z m-866 -125 c0 -5 -4
-3 -9 5 -5 8 -9 22 -9 30 0 16 17 -16 18 -35z m-116 12 c18 -18 18 -34 2 -47
-12 -10 -13 -7 -9 14 2 14 0 26 -6 26 -5 0 -10 5 -10 10 0 14 9 13 23 -3z m42
-67 c3 -6 -1 -7 -9 -4 -18 7 -21 14 -7 14 6 0 13 -4 16 -10z m66 -45 c5 4 9 1
9 -5 0 -7 -7 -9 -17 -6 -9 4 -20 1 -25 -6 -5 -9 -8 -6 -8 10 0 13 4 20 10 17
6 -3 11 2 11 12 1 13 3 11 6 -5 2 -12 9 -20 14 -17z m543 -30 c-3 -16 -12 -39
-19 -51 -9 -14 -11 -33 -6 -55 9 -45 3 -70 -17 -67 -9 2 -17 -4 -17 -12 0 -9
-8 -14 -20 -12 -17 2 -17 1 -5 -7 8 -6 12 -11 8 -11 -3 0 -13 -3 -21 -6 -24
-9 -15 22 16 54 28 29 43 96 26 118 -5 6 -2 19 7 30 8 10 13 14 10 7 -4 -6 -2
-14 3 -18 6 -3 8 6 5 21 -3 14 0 32 6 40 7 7 9 19 5 26 -4 7 1 4 10 -7 10 -13
14 -29 9 -50z m-494 -109 c0 -11 -19 -15 -25 -6 -3 5 1 10 9 10 9 0 16 -2 16
-4z m468 -102 c1 -14 -4 -27 -13 -30 -8 -4 -12 -11 -8 -17 3 -6 1 -7 -5 -3 -7
4 -12 1 -12 -8 0 -8 5 -18 10 -21 17 -10 12 -35 -6 -28 -10 4 -12 8 -5 12 7 5
4 14 -8 28 -19 20 -19 21 -1 26 20 5 47 47 30 47 -5 0 -10 -6 -10 -14 0 -7
-10 -16 -21 -19 -20 -5 -20 -4 5 22 14 15 23 31 19 35 -4 4 -1 4 8 1 8 -3 16
-17 17 -31z m-450 -91 c2 -9 -7 -13 -27 -13 -17 0 -31 -4 -31 -10 0 -5 -7 -7
-16 -3 -15 6 -15 7 1 19 10 7 22 11 26 8 5 -3 9 0 9 6 0 15 32 9 38 -7z m372
-11 c14 -6 18 -11 10 -11 -9 -1 -21 4 -27 10 -7 7 -12 3 -17 -16 -4 -16 -11
-23 -18 -19 -8 5 -9 2 -5 -10 5 -11 3 -16 -5 -14 -21 7 -20 26 1 33 23 7 28
30 9 39 -7 2 -4 3 7 2 11 -2 31 -8 45 -14z m-73 -8 c0 -7 -9 -15 -19 -17 -15
-4 -17 -2 -9 7 6 7 9 15 6 18 -3 2 1 5 8 5 8 0 14 -6 14 -13z m-310 -10 c-3
-3 -12 -4 -19 -1 -8 3 -5 6 6 6 11 1 17 -2 13 -5z m260 -46 c-3 -8 -6 -5 -6 6
-1 11 2 17 5 13 3 -3 4 -12 1 -19z m123 -23 c14 -19 14 -19 -2 -6 -10 7 -18
18 -18 24 0 6 1 8 3 6 1 -2 9 -13 17 -24z m-95 5 c-3 -5 -16 -15 -28 -21 -21
-10 -21 -9 2 10 25 23 36 27 26 11z m65 -4 c0 -2 -8 -10 -17 -17 -16 -13 -17
-12 -4 4 13 16 21 21 21 13z m30 -26 c12 -7 10 -9 -8 -7 -12 0 -22 5 -22 9 0
11 12 10 30 -2z"/>
<path d="M5140 1046 c0 -2 7 -7 16 -10 8 -3 12 -2 9 4 -6 10 -25 14 -25 6z"/>
<path d="M5496 1031 c-4 -7 -5 -15 -2 -18 9 -9 19 4 14 18 -4 11 -6 11 -12 0z"/>
<path d="M5442 995 c-2 -27 4 -30 27 -16 16 10 8 41 -12 41 -7 0 -14 -11 -15
-25z"/>
<path d="M6744 999 c-2 -4 0 -10 6 -14 5 -3 10 -3 10 2 0 4 5 1 10 -7 7 -12 9
-11 8 6 -2 20 -24 29 -34 13z"/>
<path d="M633 970 c-17 -10 -34 -23 -37 -29 -4 -6 -24 -10 -45 -9 -52 2 -69
-10 -42 -29 16 -10 21 -25 21 -56 0 -31 5 -45 19 -54 18 -11 27 -4 90 68 39
44 71 84 71 88 0 5 -11 16 -24 24 -21 14 -26 14 -53 -3z"/>
<path d="M1250 953 c0 -16 5 -35 10 -43 6 -10 9 -2 7 28 -1 46 -17 59 -17 15z"/>
<path d="M5408 963 c-21 -5 -23 -19 -6 -29 7 -5 8 -3 3 6 -6 10 -4 12 8 7 9
-3 19 -2 22 3 7 11 -6 17 -27 13z"/>
<path d="M6575 961 c3 -2 -3 -13 -12 -23 -16 -18 -16 -18 2 -12 12 5 16 4 11
-4 -3 -6 -1 -14 6 -18 7 -4 10 -4 6 1 -9 10 10 47 21 41 4 -3 8 1 8 7 0 7 -11
13 -23 13 -13 0 -21 -2 -19 -5z"/>
<path d="M6601 927 c2 -1 13 -9 24 -17 19 -14 19 -14 6 3 -7 9 -18 17 -24 17
-6 0 -8 -1 -6 -3z"/>
<path d="M1280 850 c0 -5 5 -10 11 -10 5 0 7 5 4 10 -3 6 -8 10 -11 10 -2 0
-4 -4 -4 -10z"/>
<path d="M5835 730 c-3 -5 -34 -10 -69 -10 -35 0 -67 -5 -74 -12 -16 -16 -15
-48 1 -48 7 0 26 -13 42 -30 24 -25 36 -30 77 -30 33 0 48 4 48 13 0 7 14 26
30 42 32 31 38 53 18 73 -15 15 -64 16 -73 2z"/>
<path d="M6323 668 c-24 -16 -43 -37 -43 -46 1 -13 6 -10 25 11 14 15 25 24
25 18 0 -6 -12 -22 -26 -36 -14 -14 -24 -31 -22 -37 6 -17 36 -18 52 -2 17 17
30 19 20 3 -3 -6 6 -3 20 6 21 14 26 24 22 46 -2 18 1 30 10 33 8 3 14 10 14
16 0 6 -7 4 -16 -5 -12 -12 -19 -13 -30 -4 -8 6 -11 15 -8 20 7 13 4 11 -43
-23z m53 -36 c1 -15 0 -19 -2 -10 -3 9 -11 16 -17 14 -7 -1 -9 -1 -4 1 4 3 7
12 7 21 0 25 14 4 16 -26z"/>
<path d="M2590 671 c0 -5 12 -17 28 -26 l27 -18 -24 27 c-26 28 -31 31 -31 17z"/>
<path d="M1564 594 c-1 -50 1 -55 20 -53 34 4 68 -11 62 -27 -4 -9 -1 -12 5
-9 6 4 8 13 5 21 -3 8 -1 14 3 14 5 0 18 15 29 34 l20 34 -29 21 c-18 14 -43
21 -71 21 l-43 0 -1 -56z"/>
<path d="M6438 613 c19 -7 -16 -32 -46 -33 -13 0 -20 -4 -17 -10 3 -5 19 -10
34 -10 20 0 30 6 34 20 3 11 13 20 24 20 15 0 16 2 3 10 -8 5 -22 9 -30 9 -11
0 -11 -2 -2 -6z"/>
<path d="M2307 575 c10 -13 21 -25 25 -25 3 0 20 -12 37 -26 17 -14 37 -24 43
-21 8 3 3 9 -12 15 -14 5 -41 26 -59 46 -40 41 -61 48 -34 11z"/>
<path d="M4225 587 c-4 -8 -22 -12 -51 -11 -33 1 -43 -1 -35 -9 6 -6 11 -16
11 -21 0 -6 -4 -5 -9 3 -7 11 -12 10 -29 -5 -10 -11 -18 -27 -17 -36 2 -11 -2
-15 -11 -11 -10 3 -12 0 -8 -10 3 -9 0 -25 -6 -37 -11 -20 -10 -21 10 -15 17
6 21 4 15 -6 -6 -9 -2 -8 11 2 28 23 48 34 41 22 -10 -17 20 -24 33 -8 6 8 19
11 27 8 10 -4 14 -2 9 5 -3 6 -2 13 4 17 6 4 8 11 5 16 -6 8 9 13 28 10 5 -1
6 3 2 9 -3 6 -11 8 -16 5 -5 -3 -6 1 -3 9 3 9 12 16 20 16 8 0 11 6 7 17 -4
10 -2 14 4 10 5 -3 10 0 10 8 0 11 -4 12 -14 4 -12 -11 -17 -5 -14 14 2 12
-19 8 -24 -6z m-50 -126 c3 -5 2 -12 -3 -15 -5 -3 -9 1 -9 9 0 17 3 19 12 6z"/>
<path d="M1939 538 c0 -13 -2 -30 -4 -38 -12 -54 -22 -136 -18 -147 10 -24 23
-2 23 38 0 32 6 46 33 70 31 29 32 30 10 35 -17 5 -23 14 -23 35 0 34 -20 40
-21 7z"/>
<path d="M1800 519 c-19 -10 -43 -18 -52 -19 -9 0 -20 -4 -23 -10 -3 -5 -23
-10 -44 -10 l-38 0 1 -43 1 -42 67 3 c67 4 68 4 68 -21 0 -33 14 -41 40 -25
13 9 20 23 20 45 0 17 5 35 10 38 16 10 8 107 -9 104 -3 -1 -22 -9 -41 -20z"/>
<path d="M716 424 c-9 -13 -16 -32 -16 -42 0 -10 -3 -22 -7 -25 -3 -4 -8 -24
-10 -45 -3 -30 -2 -35 8 -24 7 6 25 12 39 12 45 0 90 -66 59 -85 -6 -4 -8 -13
-5 -21 3 -8 1 -15 -4 -15 -6 -1 -14 -2 -19 -3 -5 0 -13 -4 -17 -9 -4 -4 25 -7
64 -7 49 0 72 -4 72 -12 0 -7 15 1 33 18 72 65 127 73 176 23 17 -17 31 -37
31 -45 0 -8 6 -17 14 -20 8 -3 13 -14 11 -25 -6 -29 21 -23 56 12 20 20 28 37
24 48 -4 9 -9 34 -11 55 -3 22 -7 44 -10 48 -3 4 0 8 5 8 6 0 11 9 11 21 0 11
4 18 8 15 5 -3 9 10 9 29 0 27 -5 35 -18 35 -9 0 -19 6 -22 14 -7 17 -83 20
-93 4 -3 -5 -12 -4 -20 3 -11 9 -14 8 -14 -2 0 -9 -3 -10 -8 -3 -12 18 -115
65 -123 57 -4 -4 -9 -19 -11 -33 -2 -17 -10 -26 -25 -28 -13 -2 -23 1 -23 7 0
6 -8 11 -18 11 -10 0 -22 3 -25 7 -4 3 -29 14 -56 24 l-50 17 -15 -24z m388
-70 c3 -8 2 -12 -4 -9 -6 3 -10 10 -10 16 0 14 7 11 14 -7z m-94 -4 c0 -5 -7
-7 -15 -4 -8 4 -15 8 -15 10 0 2 7 4 15 4 8 0 15 -4 15 -10z m35 0 c3 -5 -1
-10 -10 -10 -9 0 -13 5 -10 10 3 6 8 10 10 10 2 0 7 -4 10 -10z"/>
<path d="M1880 414 c-6 -14 -10 -33 -10 -43 0 -9 -11 -50 -26 -91 -14 -41 -26
-82 -28 -90 -13 -74 -22 -95 -62 -136 -24 -24 -44 -46 -44 -49 0 -3 37 -5 83
-5 l84 0 -9 67 c-7 49 -6 68 3 73 6 5 10 19 7 34 -3 14 -1 26 3 26 5 0 9 -13
9 -29 0 -26 4 -29 39 -33 l39 -3 6 44 c3 24 6 62 6 84 l0 40 -22 -20 c-22 -20
-61 -43 -72 -43 -9 0 -7 121 3 163 10 43 5 49 -9 11z"/>
<path d="M2320 390 l0 -50 60 0 c33 0 60 4 60 10 0 6 9 10 20 10 28 0 25 14
-7 36 -50 34 -75 44 -104 44 -28 0 -29 -2 -29 -50z"/>
<path d="M5520 370 c0 -5 5 -10 10 -10 6 0 10 5 10 10 0 6 -4 10 -10 10 -5 0
-10 -4 -10 -10z"/>
<path d="M5540 331 c0 -11 -4 -23 -10 -26 -5 -3 -10 -23 -10 -43 0 -23 -16
-69 -40 -120 -23 -46 -43 -97 -47 -113 l-5 -29 146 0 c136 0 146 1 146 19 0
10 -7 24 -15 31 -20 16 -46 70 -34 70 14 0 11 38 -3 43 -10 3 -10 9 -2 28 53
114 46 149 -33 149 l-43 0 0 -66 c0 -36 3 -63 8 -61 4 3 5 -24 4 -60 -2 -35
-5 -63 -7 -61 -2 2 -6 30 -9 63 -7 69 -14 121 -20 150 -3 11 -5 26 -5 33 -1
20 -21 14 -21 -7z"/>
<path d="M6666 295 c4 -8 10 -15 15 -15 4 0 6 7 3 15 -4 8 -10 15 -15 15 -4 0
-6 -7 -3 -15z"/>
<path d="M2036 268 c-18 -90 -25 -125 -28 -143 -3 -18 3 -20 51 -23 40 -2 58
-8 71 -24 12 -16 22 -19 36 -13 18 8 18 9 -3 12 -28 5 -29 27 -3 81 31 64 27
73 -43 107 -34 16 -65 31 -68 32 -4 2 -10 -11 -13 -29z"/>
<path d="M2950 250 c-13 -8 -12 -10 3 -10 9 0 17 5 17 10 0 12 -1 12 -20 0z"/>
<path d="M2850 226 c0 -2 9 -6 20 -9 11 -3 18 -1 14 4 -5 9 -34 13 -34 5z"/>
<path d="M2937 209 c-9 -6 -15 -14 -12 -18 2 -5 -2 -14 -10 -21 -15 -12 -12
-30 5 -30 9 0 43 70 38 76 -2 1 -11 -2 -21 -7z"/>
<path d="M2550 190 c0 -5 5 -10 10 -10 6 0 10 5 10 10 0 6 -4 10 -10 10 -5 0
-10 -4 -10 -10z"/>
<path d="M2876 192 c-2 -4 -1 -14 4 -22 7 -11 9 -9 7 8 -1 24 -3 26 -11 14z"/>
<path d="M2861 166 c-1 -12 46 -66 53 -59 9 9 -13 43 -29 43 -7 0 -16 6 -18
13 -3 6 -6 8 -6 3z"/>
<path d="M2731 119 c11 -11 23 -18 26 -15 4 3 11 2 17 -3 18 -14 69 -23 61
-11 -3 5 -12 10 -18 10 -7 1 -30 9 -52 20 -52 25 -60 25 -34 -1z"/>
<path d="M5978 30 l-33 -29 78 -1 c85 0 95 10 41 41 -40 24 -49 23 -86 -11z"/>
<path d="M2160 20 c0 -11 5 -20 10 -20 6 0 10 9 10 20 0 11 -4 20 -10 20 -5 0
-10 -9 -10 -20z"/>
<path d="M5000 10 c0 -5 25 -10 55 -10 30 0 55 5 55 10 0 6 -25 10 -55 10 -30
0 -55 -4 -55 -10z"/>
</g>
</svg>
