<?xml version="1.0" standalone="no"?>
<!DOCTYPE svg PUBLIC "-//W3C//DTD SVG 20010904//EN"
 "http://www.w3.org/TR/2001/REC-SVG-20010904/DTD/svg10.dtd">
<svg version="1.0" xmlns="http://www.w3.org/2000/svg"
 width="384.000000pt" height="384.000000pt" viewBox="0 0 384.000000 384.000000"
 preserveAspectRatio="xMidYMid meet">
<metadata>
Created by potrace 1.14, written by Peter Selinger 2001-2017
</metadata>
<g transform="translate(0.000000,384.000000) scale(0.100000,-0.100000)"
fill="#000000" stroke="none">
<path d="M405 3830 c-154 -32 -293 -141 -358 -281 -48 -105 -47 -51 -46 -1623
0 -964 4 -1490 10 -1526 32 -169 170 -320 343 -376 l71 -23 1485 -1 c1298 0
1493 2 1545 15 185 47 334 199 373 380 18 81 16 2982 -2 3057 -39 168 -160
299 -333 361 l-72 26 -1488 0 c-819 -1 -1506 -5 -1528 -9z"/>
</g>
</svg>
